<svg xmlns="http://www.w3.org/2000/svg" viewBox="0 0 1920 919.94">
  <defs>
    <style>
      .cls-1 {
        isolation: isolate;
      }

      .cls-2 {
        opacity: 0.15;
        mix-blend-mode: multiply;
      }

      .cls-13, .cls-3, .cls-8 {
        fill: #9e9e9e;
      }

      .cls-4 {
        fill: #a4a4a4;
      }

      .cls-5 {
        fill: #9c9c9c;
      }

      .cls-6 {
        fill: #b4b4b4;
      }

      .cls-7 {
        fill: #878787;
      }

      .cls-8 {
        font-size: 188.7px;
      }

      .cls-13, .cls-8 {
        font-family: MyriadPro-Regular, Myriad Pro;
      }

      .cls-9 {
        letter-spacing: -0.04em;
      }

      .cls-10 {
        letter-spacing: 0em;
      }

      .cls-11 {
        letter-spacing: 0em;
      }

      .cls-12 {
        letter-spacing: 0em;
      }

      .cls-13 {
        font-size: 150.8px;
      }

      .cls-14 {
        letter-spacing: -0.01em;
      }

      .cls-15 {
        letter-spacing: -0.01em;
      }

      .cls-16 {
        letter-spacing: 0em;
      }
    </style>
  </defs>
  <title>Asset 65</title>
  <g class="cls-1">
    <g id="Layer_2" data-name="Layer 2">
      <g id="Layer_1-2" data-name="Layer 1">
        <g>
          <g>
            <g>
              <g class="cls-2">
                <path d="M944,774.84c-40.1,0-77.3-38.86-104.75-109.42-26.74-68.76-41.46-160-41.46-257s14.72-188.29,41.46-257C866.71,80.77,903.91,41.91,944,41.91s77.31,38.86,104.75,109.42c26.74,68.75,41.47,160,41.47,257s-14.73,188.29-41.47,257C1021.32,736,984.12,774.84,944,774.84ZM944,54c-34.26,0-68.34,37.07-93.48,101.71-26.21,67.39-40.64,157.13-40.64,252.66S824.32,593.64,850.53,661c25.14,64.64,59.22,101.71,93.48,101.71s68.34-37.07,93.48-101.71c26.21-67.4,40.65-157.13,40.65-252.67s-14.44-185.27-40.65-252.66C1012.35,91.07,978.28,54,944,54Z"/>
              </g>
              <path class="cls-3" d="M944,767.6c-40.1,0-77.3-38.86-104.75-109.42-26.74-68.76-41.46-160-41.46-257s14.72-188.29,41.46-257C866.71,73.52,903.91,34.66,944,34.66s77.31,38.86,104.75,109.42c26.74,68.76,41.47,160,41.47,257s-14.73,188.29-41.47,257C1021.32,728.74,984.12,767.6,944,767.6Zm0-720.85c-34.26,0-68.34,37.08-93.48,101.71-26.21,67.4-40.64,157.13-40.64,252.67s14.43,185.27,40.64,252.66c25.14,64.64,59.22,101.72,93.48,101.72s68.34-37.08,93.48-101.72c26.21-67.39,40.65-157.12,40.65-252.66s-14.44-185.27-40.65-252.67C1012.35,83.83,978.28,46.75,944,46.75Z"/>
            </g>
            <g>
              <g class="cls-2">
                <path d="M1171.56,625.47c-79.2,0-196.4-43.14-305.85-112.59-64.22-40.75-121.06-87.14-164.35-134.16-42.6-46.25-69.22-89.89-77-126.2C619.55,230,622.13,211,632,196.06c14.38-21.78,43.59-33.3,84.47-33.3,79.21,0,196.4,43.15,305.85,112.6,64.23,40.75,121.06,87.14,164.36,134.16,42.59,46.25,69.22,89.89,77,126.21,4.81,22.47,2.24,41.47-7.66,56.45C1241.65,614,1212.44,625.47,1171.56,625.47ZM716.49,170.83c-38,0-64.93,10.26-77.74,29.67-8.66,13.11-10.84,30-6.5,50.33,15.47,72.24,111,174.82,237.78,255.24,108.23,68.68,223.77,111.34,301.53,111.34,38,0,64.93-10.26,77.75-29.67,8.65-13.11,10.84-30,6.5-50.33-15.47-72.24-111-174.82-237.78-255.24C909.79,213.49,794.25,170.83,716.49,170.83Z"/>
              </g>
              <path class="cls-3" d="M1171.56,618.23c-79.21,0-196.4-43.14-305.85-112.6-64.22-40.75-121.06-87.14-164.35-134.15-42.6-46.25-69.22-89.9-77-126.21-4.81-22.48-2.23-41.47,7.66-56.46,14.38-21.78,43.59-33.29,84.47-33.29,79.21,0,196.4,43.14,305.85,112.6,64.23,40.74,121.06,87.14,164.36,134.15,42.59,46.26,69.22,89.9,77,126.21,4.81,22.48,2.24,41.47-7.66,56.46C1241.65,606.72,1212.44,618.23,1171.56,618.23ZM716.49,163.58c-38,0-64.93,10.26-77.74,29.67-8.66,13.12-10.84,30.05-6.5,50.34,15.47,72.24,111,174.81,237.78,255.24,108.23,68.68,223.77,111.34,301.53,111.34,38,0,64.93-10.26,77.75-29.67,8.65-13.12,10.84-30,6.5-50.33-15.47-72.25-111-174.82-237.78-255.25C909.79,206.25,794.25,163.58,716.49,163.58Z"/>
            </g>
            <g>
              <g class="cls-2">
                <path d="M716.5,625.47h0c-40.88,0-70.09-11.51-84.47-33.29-9.89-15-12.47-34-7.66-56.46,7.78-36.31,34.4-80,77-126.2,43.29-47,100.13-93.41,164.35-134.16,109.45-69.45,226.64-112.6,305.85-112.6,40.89,0,70.09,11.52,84.47,33.3,9.89,15,12.47,34,7.66,56.46-7.78,36.31-34.4,80-77,126.2-43.3,47-100.13,93.41-164.36,134.16C912.88,582.33,795.69,625.47,716.5,625.47Zm455.05-454.64c-77.76,0-193.3,42.66-301.53,111.34-126.76,80.42-222.31,183-237.78,255.24-4.35,20.29-2.16,37.22,6.5,50.33,12.81,19.41,39.69,29.67,77.74,29.67h0c77.75,0,193.28-42.66,301.51-111.34,126.76-80.42,222.32-183,237.78-255.24,4.35-20.29,2.16-37.22-6.5-50.33C1236.48,181.09,1209.6,170.83,1171.55,170.83Z"/>
              </g>
              <path class="cls-3" d="M716.5,618.23h0c-40.89,0-70.1-11.51-84.48-33.29-9.89-15-12.47-34-7.66-56.46,7.78-36.31,34.4-80,77-126.21,43.29-47,100.13-93.41,164.35-134.16,109.45-69.45,226.64-112.59,305.85-112.59,40.89,0,70.09,11.51,84.47,33.29,9.89,15,12.47,34,7.66,56.46-7.78,36.32-34.4,80-77,126.21-43.3,47-100.13,93.4-164.36,134.15C912.89,575.08,795.7,618.23,716.5,618.23Zm455.05-454.65c-77.76,0-193.3,42.67-301.53,111.34-126.76,80.43-222.31,183-237.78,255.25-4.35,20.28-2.16,37.21,6.5,50.33,12.81,19.41,39.7,29.67,77.75,29.67h0c77.75,0,193.28-42.66,301.51-111.34,126.76-80.43,222.32-183,237.78-255.24,4.35-20.29,2.16-37.22-6.5-50.34C1236.48,173.84,1209.6,163.58,1171.55,163.58Z"/>
            </g>
          </g>
          <g>
            <g>
              <g class="cls-2">
                <path d="M893.7,381.92c0-32.35,26.75-58.57,59.75-58.57s59.75,26.22,59.75,58.57-26.75,58.57-59.75,58.57S893.7,414.26,893.7,381.92Z"/>
              </g>
              <ellipse class="cls-4" cx="944.03" cy="374.67" rx="59.74" ry="58.57"/>
            </g>
            <g>
              <g class="cls-2">
                <path d="M1227.14,288.25a22.43,22.43,0,1,1,22.43,22A22.21,22.21,0,0,1,1227.14,288.25Z"/>
              </g>
              <path class="cls-5" d="M1217.72,281a22.43,22.43,0,1,1,22.43,22A22.21,22.21,0,0,1,1217.72,281Z"/>
            </g>
            <g>
              <g class="cls-2">
                <path d="M1104.39,605.28c0-10.86,9.38-19.67,21-19.67s20.94,8.81,20.94,19.67S1136.91,625,1125.35,625,1104.39,616.15,1104.39,605.28Z"/>
              </g>
              <path class="cls-6" d="M1108.42,601.78c0-10.87,9.38-19.67,20.95-19.67s21,8.8,21,19.67-9.38,19.66-21,19.66S1108.42,612.64,1108.42,601.78Z"/>
            </g>
            <g>
              <g class="cls-2">
                <path d="M917.46,42.51c0-19.48,16.11-35.27,36-35.27s36,15.79,36,35.27-16.11,35.26-36,35.26S917.46,62,917.46,42.51Z"/>
              </g>
              <path class="cls-7" d="M908.05,35.26C908.05,15.79,924.15,0,944,0s36,15.79,36,35.26-16.1,35.26-36,35.26S908.05,54.74,908.05,35.26Z"/>
            </g>
          </g>
        </g>
        <text class="cls-8" transform="translate(0 442.81)">P<tspan class="cls-9" x="100.39" y="0">L</tspan><tspan class="cls-10" x="182.66" y="0">U</tspan><tspan class="cls-11" x="304.75" y="0">R</tspan><tspan class="cls-12" x="407.21" y="0">AL</tspan></text>
        <text class="cls-13" transform="translate(298.15 882.24)"><tspan class="cls-14">T</tspan><tspan x="73.89" y="0">he </tspan><tspan class="cls-15" x="265.1" y="0">g</tspan><tspan class="cls-16" x="348.49" y="0">r</tspan><tspan x="397.05" y="0">ammar of true </tspan></text>
        <text class="cls-8" transform="translate(1253.13 457.89)">SCIENCE</text>
      </g>
    </g>
  </g>
</svg>
