<svg xmlns="http://www.w3.org/2000/svg" viewBox="0 0 1860.33 1070.54">
  <defs>
    <style>
      .cls-1 {
        isolation: isolate;
      }

      .cls-2 {
        opacity: 0.15;
        mix-blend-mode: multiply;
      }

      .cls-3 {
        fill: #bcbcbc;
      }

      .cls-4 {
        fill: #7f7f7f;
      }

      .cls-14, .cls-5 {
        fill: #f9f7ea;
      }

      .cls-6 {
        fill: #4c210c;
      }

      .cls-7 {
        fill: #6b6b6b;
      }

      .cls-8 {
        fill: #595959;
      }

      .cls-9 {
        fill: #777;
      }

      .cls-10 {
        fill: #2b2b2b;
      }

      .cls-11 {
        fill: #a5a5a5;
      }

      .cls-12 {
        fill: #575756;
      }

      .cls-13 {
        fill: #4f4f4f;
      }

      .cls-14 {
        opacity: 0.8;
      }

      .cls-15 {
        fill: #424242;
      }

      .cls-16 {
        fill: #474747;
      }

      .cls-17 {
        fill: #3c3c3b;
      }

      .cls-18 {
        fill: #062e66;
        opacity: 0.1;
      }

      .cls-19 {
        fill: #606060;
      }

      .cls-20 {
        fill: #161616;
      }

      .cls-21 {
        fill: #353535;
      }

      .cls-22 {
        fill: #282828;
      }

      .cls-23 {
        fill: #a4a4a4;
      }

      .cls-24 {
        fill: #9c9c9c;
      }

      .cls-25 {
        fill: #b4b4b4;
      }

      .cls-26 {
        fill: #878787;
      }

      .cls-27 {
        font-size: 210.84px;
        font-family: Ubuntu-Medium, Ubuntu;
      }

      .cls-28 {
        letter-spacing: -0.01em;
      }

      .cls-29 {
        letter-spacing: -0.03em;
      }

      .cls-30 {
        letter-spacing: 0.01em;
      }

      .cls-31 {
        letter-spacing: 0em;
      }

      .cls-32 {
        letter-spacing: 0.02em;
      }
    </style>
  </defs>
  <title>Asset 55</title>
  <g class="cls-1">
    <g id="Layer_2" data-name="Layer 2">
      <g id="Layer_1-2" data-name="Layer 1">
        <g>
          <g>
            <g>
              <g class="cls-2">
                <path d="M249.87,1070.54l-213.77-.26c-15.42,0-26.6-8.62-26.59-20.47a34.39,34.39,0,0,1,5.61-19.22L102.5,885l.12-94.45c-7.94-7.89-10.78-13.08-9.2-16.77.55-1.3,2.18-3.47,6.77-3.47q.56,0,1,0a20,20,0,0,1,4-.34,43.53,43.53,0,0,1,5.63.41l65.1.07a43.92,43.92,0,0,1,5.62-.4,19.79,19.79,0,0,1,4,.36q.42,0,1,0c4.6,0,6.22,2.19,6.78,3.49,1.56,3.69-1.3,8.88-9.25,16.74l-.13,94.45,87,145.81a34.35,34.35,0,0,1,5.55,19.23c0,11.84-11.21,20.42-26.64,20.41"/>
              </g>
              <path class="cls-3" d="M240.36,1063.48l-213.77-.26c-15.42,0-26.6-8.61-26.59-20.46a34.36,34.36,0,0,1,5.61-19.22L93,877.94l.12-94.45c-7.94-7.88-10.78-13.07-9.2-16.76.55-1.3,2.17-3.48,6.77-3.48q.55,0,1,0a20.77,20.77,0,0,1,4-.34,45.28,45.28,0,0,1,5.62.41l65.1.08A43.92,43.92,0,0,1,172,763a20.59,20.59,0,0,1,4,.35c.29,0,.6,0,1,0,4.6,0,6.22,2.19,6.78,3.5,1.56,3.69-1.3,8.88-9.25,16.74L174.44,878l87,145.8a34.45,34.45,0,0,1,5.56,19.23c0,11.84-11.23,20.43-26.65,20.41"/>
            </g>
            <g>
              <path class="cls-4" d="M99.92,903.68,23.81,1021.45s-5.92,10.6-3.15,18.36,4.59,12.68,29.54,12.71l179,.21s16.43.5,19.56-12-1.79-18.53-11.62-33.43S174.2,903.68,174.2,903.68H99.92"/>
              <g>
                <path class="cls-5" d="M110.32,941.86a7.1,7.1,0,1,1,7.1,6.85A7,7,0,0,1,110.32,941.86Z"/>
                <path class="cls-5" d="M186.45,1024.93a7.1,7.1,0,1,1,7.1,6.85A7,7,0,0,1,186.45,1024.93Z"/>
                <path class="cls-5" d="M52.08,1024.93a10,10,0,1,1,10,9.65A9.83,9.83,0,0,1,52.08,1024.93Z"/>
                <path class="cls-5" d="M103.22,994a5.34,5.34,0,1,1,5.34,5.14A5.25,5.25,0,0,1,103.22,994Z"/>
                <path class="cls-5" d="M147.75,967.32c0-8.42,7.07-15.25,15.8-15.25s15.81,6.83,15.81,15.25-7.08,15.24-15.81,15.24S147.75,975.74,147.75,967.32Z"/>
              </g>
            </g>
          </g>
          <g>
            <g>
              <g class="cls-2">
                <path d="M143,731.75a14.25,14.25,0,1,1,14.24,13.74A14,14,0,0,1,143,731.75Z"/>
              </g>
              <path class="cls-4" d="M133.5,724.7a14.25,14.25,0,1,1,14.25,13.73A14,14,0,0,1,133.5,724.7Z"/>
            </g>
            <g>
              <g class="cls-2">
                <path d="M99.36,688.74c0-10,8.37-18,18.71-18s18.71,8.08,18.71,18-8.37,18-18.71,18S99.36,698.71,99.36,688.74Z"/>
              </g>
              <path class="cls-4" d="M89.85,681.69c0-10,8.37-18.05,18.71-18.05s18.71,8.08,18.71,18.05-8.37,18-18.71,18S89.85,691.65,89.85,681.69Z"/>
            </g>
            <g>
              <g class="cls-2">
                <path d="M160.52,670.69a11,11,0,1,1,11,10.58A10.79,10.79,0,0,1,160.52,670.69Z"/>
              </g>
              <path class="cls-4" d="M151,663.64a11,11,0,1,1,11,10.58A10.77,10.77,0,0,1,151,663.64Z"/>
            </g>
          </g>
        </g>
        <g>
          <g>
            <g class="cls-2">
              <path class="cls-6" d="M505.24,285.62,484.51,264.7a7.28,7.28,0,0,0-10-.24l-9.05,8.23a90.64,90.64,0,0,0-18-7.88l.58-11.91a6.91,6.91,0,0,0-6.76-7.07l-30.07-1.25a6.93,6.93,0,0,0-7.36,6.47l-.52,11.26a91,91,0,0,0-22.29,7.27l-7.58-7.66a7.3,7.3,0,0,0-10-.25L341.66,281.5a6.58,6.58,0,0,0-.25,9.57l6.32,6.38a83.36,83.36,0,0,0-10.23,19.31l-8.17-.35a7,7,0,0,0-7.37,6.46l-1.31,28.81a6.86,6.86,0,0,0,6.72,7.05l6.32.27a81.4,81.4,0,0,0,9,25.27l-3.94,3.57a6.57,6.57,0,0,0-.27,9.56l20.72,20.92a7.28,7.28,0,0,0,10,.23l3.36-3.07a89,89,0,0,0,23.32,10.23l-.21,4.42a6.93,6.93,0,0,0,6.76,7.07l30.07,1.25a7,7,0,0,0,7.35-6.48l.25-5.07A88.88,88.88,0,0,0,466,416.81l4.26,4.3a7.28,7.28,0,0,0,10,.24l21.84-19.84a6.55,6.55,0,0,0,.26-9.55l-5.5-5.55a82.43,82.43,0,0,0,8.56-20.19l9,.37a6.93,6.93,0,0,0,7.36-6.46l1.31-28.8a6.86,6.86,0,0,0-6.72-7l-10.9-.44a81.67,81.67,0,0,0-8.95-21l8.47-7.69A6.55,6.55,0,0,0,505.24,285.62Zm-58,34.87a34.4,34.4,0,0,1-1.39,50.13,38.2,38.2,0,0,1-52.35-1.31,34.41,34.41,0,0,1,1.37-50.14A38.19,38.19,0,0,1,447.22,320.49Z"/>
              <path class="cls-6" d="M382.59,379.3,364.78,356a7.27,7.27,0,0,0-9.87-1.44l-10.05,7.08a89,89,0,0,0-16.83-10l2.14-11.75a6.8,6.8,0,0,0-5.77-7.82l-29.66-4.87a7,7,0,0,0-8.15,5.53l-2,11.11a91,91,0,0,0-23.07,4.52L255,339.88a7.28,7.28,0,0,0-9.88-1.46l-24.26,17a6.58,6.58,0,0,0-1.51,9.46l5.43,7.11a84.09,84.09,0,0,0-12.69,17.91L204,388.61a7,7,0,0,0-8.16,5.52l-5.1,28.42a6.78,6.78,0,0,0,5.74,7.8l6.24,1a80.42,80.42,0,0,0,5.6,26.16L204,460.61a6.59,6.59,0,0,0-1.53,9.44l17.81,23.26a7.27,7.27,0,0,0,9.87,1.44l3.73-2.64a88,88,0,0,0,21.8,13l-.79,4.36a6.85,6.85,0,0,0,5.76,7.83l29.67,4.86a7,7,0,0,0,8.15-5.53l.91-5a89.1,89.1,0,0,0,27-6.89l3.66,4.78a7.23,7.23,0,0,0,9.86,1.45l24.26-17a6.56,6.56,0,0,0,1.52-9.45L361,478.27a83.77,83.77,0,0,0,11.14-19l8.9,1.46a7,7,0,0,0,8.15-5.52l5.08-28.41a6.74,6.74,0,0,0-5.73-7.79l-10.75-1.76a81.25,81.25,0,0,0-6.13-21.89l9.43-6.61A6.58,6.58,0,0,0,382.59,379.3Zm-53.93,21.81c15.41,20.12,10.88,48.44-10.16,63.21s-50.6,10.42-66-9.71-10.88-48.46,10.16-63.23S313.21,381,328.66,401.11Z"/>
              <path class="cls-6" d="M646.26,452l-5.1-14.42a3.78,3.78,0,0,0-4.71-2.23l-6.27,2a43.7,43.7,0,0,0-6.81-7.56l3-5.58a3.55,3.55,0,0,0-1.62-4.84l-14.09-7a3.82,3.82,0,0,0-5.06,1.55l-2.82,5.31a46.62,46.62,0,0,0-12.4-1.24l-1.84-5.29a3.77,3.77,0,0,0-4.72-2.25l-15.08,4.9a3.54,3.54,0,0,0-2.31,4.53l1.55,4.4a46.46,46.46,0,0,0-9.35,7.08l-3.82-1.87a3.85,3.85,0,0,0-5.07,1.52l-7.27,13.51a3.53,3.53,0,0,0,1.63,4.83l3,1.44a41.93,41.93,0,0,0-1.51,14.05l-2.71.87a3.5,3.5,0,0,0-2.36,4.51l5.12,14.42a3.76,3.76,0,0,0,4.73,2.23l2.32-.76a44.93,44.93,0,0,0,8.8,9.85l-1.09,2a3.52,3.52,0,0,0,1.6,4.85l14.11,7a3.83,3.83,0,0,0,5-1.55l1.33-2.39a47.25,47.25,0,0,0,14.72.63l1,3a3.76,3.76,0,0,0,4.7,2.23l15.09-4.9a3.55,3.55,0,0,0,2.32-4.52L619,498.49a44.14,44.14,0,0,0,8.78-7.87l4.22,2.1a3.82,3.82,0,0,0,5-1.55l7.27-13.49a3.53,3.53,0,0,0-1.63-4.85l-5.09-2.49a43.09,43.09,0,0,0,.54-12l5.83-1.89A3.51,3.51,0,0,0,646.26,452Zm-30.76,2.8c4.42,12.44-2.56,26-15.6,30.25s-27.18-2.45-31.62-14.94,2.56-26,15.61-30.26S611.09,442.26,615.5,454.76Z"/>
            </g>
            <g>
              <path class="cls-7" d="M501.6,275.15l-20.73-20.92a7.29,7.29,0,0,0-10-.24l-9,8.23a90.81,90.81,0,0,0-18-7.88l.58-11.91a6.9,6.9,0,0,0-6.75-7.07l-30.07-1.25a6.93,6.93,0,0,0-7.36,6.48l-.52,11.26a89.91,89.91,0,0,0-22.29,7.27l-7.59-7.67a7.28,7.28,0,0,0-10-.25L338,271a6.58,6.58,0,0,0-.25,9.57l6.32,6.38a83.22,83.22,0,0,0-10.24,19.31l-8.17-.35a6.94,6.94,0,0,0-7.36,6.46L317,341.2a6.88,6.88,0,0,0,6.73,7.06l6.32.27a81.14,81.14,0,0,0,9,25.27l-3.94,3.57a6.57,6.57,0,0,0-.27,9.56l20.72,20.92a7.28,7.28,0,0,0,10,.23L368.9,405a89.47,89.47,0,0,0,23.32,10.23l-.21,4.41a6.93,6.93,0,0,0,6.75,7.07L428.84,428a6.94,6.94,0,0,0,7.34-6.48l.26-5.07a88.88,88.88,0,0,0,25.9-10.09l4.26,4.3a7.27,7.27,0,0,0,10,.24l21.83-19.83a6.56,6.56,0,0,0,.26-9.56l-5.49-5.55a82.39,82.39,0,0,0,8.55-20.19l9,.37a6.93,6.93,0,0,0,7.36-6.46l1.3-28.8a6.84,6.84,0,0,0-6.71-7l-10.9-.45a81.6,81.6,0,0,0-8.95-21l8.46-7.7A6.55,6.55,0,0,0,501.6,275.15Zm-58,34.87a34.42,34.42,0,0,1-1.39,50.13,38.21,38.21,0,0,1-52.35-1.3,34.42,34.42,0,0,1,1.37-50.15A38.2,38.2,0,0,1,443.58,310Z"/>
              <path class="cls-8" d="M378.94,368.83l-17.8-23.26a7.27,7.27,0,0,0-9.87-1.44l-10,7.08a89.35,89.35,0,0,0-16.83-10l2.14-11.75a6.82,6.82,0,0,0-5.77-7.82l-29.67-4.87a7,7,0,0,0-8.15,5.53l-2,11.11a91.1,91.1,0,0,0-23.08,4.52l-6.51-8.51a7.28,7.28,0,0,0-9.88-1.47l-24.27,17a6.6,6.6,0,0,0-1.51,9.47l5.43,7.1a84.8,84.8,0,0,0-12.69,17.91l-8.05-1.33a7,7,0,0,0-8.17,5.52l-5.09,28.42a6.78,6.78,0,0,0,5.75,7.8l6.22,1a80.64,80.64,0,0,0,5.61,26.16l-4.37,3.07a6.58,6.58,0,0,0-1.53,9.45l17.8,23.25a7.25,7.25,0,0,0,9.86,1.44l3.74-2.64a88.11,88.11,0,0,0,21.79,13l-.78,4.36a6.84,6.84,0,0,0,5.76,7.83l29.67,4.86a7,7,0,0,0,8.15-5.53l.91-5a89.52,89.52,0,0,0,27-6.88L326.4,499a7.24,7.24,0,0,0,9.85,1.45l24.28-17A6.57,6.57,0,0,0,362,474l-4.71-6.16a84.29,84.29,0,0,0,11.14-19l8.9,1.45a7,7,0,0,0,8.15-5.52l5.08-28.41a6.76,6.76,0,0,0-5.74-7.79l-10.75-1.75a80.83,80.83,0,0,0-6.12-21.9l9.42-6.61A6.57,6.57,0,0,0,378.94,368.83ZM325,390.64c15.41,20.13,10.88,48.44-10.17,63.21s-50.6,10.42-66-9.71S238,395.69,259,380.91,309.56,370.48,325,390.64Z"/>
              <path class="cls-9" d="M642.62,441.49l-5.11-14.42a3.78,3.78,0,0,0-4.71-2.23l-6.27,2a43.6,43.6,0,0,0-6.8-7.56l3-5.58a3.55,3.55,0,0,0-1.62-4.84l-14.1-7a3.82,3.82,0,0,0-5,1.55l-2.82,5.31a47,47,0,0,0-12.4-1.24l-1.85-5.29a3.76,3.76,0,0,0-4.71-2.25l-15.08,4.9a3.55,3.55,0,0,0-2.32,4.53l1.55,4.4a46.72,46.72,0,0,0-9.34,7.09L551.22,419a3.84,3.84,0,0,0-5.07,1.52l-7.27,13.52a3.5,3.5,0,0,0,1.62,4.82l3,1.44A41.68,41.68,0,0,0,542,454.39l-2.72.87a3.5,3.5,0,0,0-2.35,4.51L542,474.19a3.78,3.78,0,0,0,4.74,2.23l2.32-.76a45.14,45.14,0,0,0,8.79,9.85l-1.08,2a3.52,3.52,0,0,0,1.6,4.85l14.1,7a3.84,3.84,0,0,0,5-1.55l1.32-2.39a47.33,47.33,0,0,0,14.73.63l1,3a3.77,3.77,0,0,0,4.71,2.23l15.09-4.9a3.55,3.55,0,0,0,2.32-4.52L615.31,488a44.42,44.42,0,0,0,8.78-7.87l4.22,2.1a3.81,3.81,0,0,0,5-1.54l7.27-13.5a3.53,3.53,0,0,0-1.63-4.85l-5.08-2.49a43.07,43.07,0,0,0,.53-12l5.84-1.88A3.53,3.53,0,0,0,642.62,441.49Zm-30.76,2.8c4.42,12.44-2.57,26-15.6,30.25s-27.19-2.45-31.62-14.94,2.56-26,15.61-30.26S607.45,431.79,611.86,444.29Z"/>
            </g>
          </g>
          <g>
            <path class="cls-10" d="M288.11,464.47c-16.81,0-31.53-7-40.41-19.21a45,45,0,0,1-8.25-34.58c2.39-13.37,10.83-25.48,23.76-34.1l116-67.18c13.63-9.1,27.29-14,39.31-14a36.11,36.11,0,0,1,30.28,15.4c6.32,8.69,8.74,18.43,7,28.17-2.33,13.1-12.11,26-27.52,36.25l-104.91,78.3A63.2,63.2,0,0,1,288.11,464.47ZM418.47,302.1c-10.7,0-23.08,4.48-35.79,13L266.73,382.24c-11.23,7.49-18.65,18.05-20.71,29.62a38.35,38.35,0,0,0,7.07,29.48c7.61,10.46,20.37,16.46,35,16.46a56.49,56.49,0,0,0,31.37-9.69l104.9-78.31c14-9.36,22.79-20.68,24.81-32,1.43-8-.53-15.79-5.83-23.08A29.3,29.3,0,0,0,418.47,302.1Z"/>
            <path class="cls-10" d="M590,479.89c-9.56,0-20.15-3.76-30.64-10.88L393.88,366.36c-21.33-16.31-21-40.22-9.74-55.62l.11-.2a2.34,2.34,0,0,1,.26-.43c6.12-8.44,18.26-13.69,31.68-13.69a46.71,46.71,0,0,1,26.41,7.87l152,113.49c20.42,13.87,27.73,33,18.94,49.8a3.25,3.25,0,0,1-.36.55l-1.59,2C606.4,476.5,598.92,479.89,590,479.89ZM390.05,313.83l-.1.19a3.52,3.52,0,0,1-.28.46c-9.17,12.38-10.58,32.18,8,46.4L562.94,463.42c9.36,6.35,18.91,9.81,27,9.81,7,0,12.53-2.47,16.47-7.33l1.37-1.7c7-13.7.61-29-17-41l-152-113.49a40.24,40.24,0,0,0-22.54-6.63C405.15,303.09,394.93,307.3,390.05,313.83Z"/>
          </g>
        </g>
        <g>
          <g>
            <g>
              <g>
                <path class="cls-11" d="M1461.5,264.09l-61.37.21a10.68,10.68,0,0,0-10.87,10.48l0,5.49a10.7,10.7,0,0,0,11,10.4h.2a27.89,27.89,0,0,0-.19,3.31l.62,170.31c.07,16.38,14,29.61,31.1,29.57s30.91-13.4,30.85-29.78l-.62-170.32a30.52,30.52,0,0,0-.23-3.33A10.62,10.62,0,0,0,1472.45,280v-5.49a10.68,10.68,0,0,0-10.94-10.4"/>
                <g>
                  <path class="cls-12" d="M1460.6,252a6.74,6.74,0,0,1-6.86,6.63l-45.89.15a6.6,6.6,0,1,1-.06-13.18l45.9-.15a6.73,6.73,0,0,1,6.91,6.55"/>
                  <rect class="cls-12" x="1406.7" y="252.14" width="48.19" height="15.38" transform="translate(-0.93 5.16) rotate(-0.21)"/>
                </g>
              </g>
              <g>
                <path class="cls-13" d="M1456.47,311.08l.56,152.78c0,13.34-11.19,24.17-25.1,24.22s-25.23-10.71-25.28-24.05l-.57-152.77"/>
                <g>
                  <path class="cls-14" d="M1429,458.46a7,7,0,1,1,7,6.69A6.85,6.85,0,0,1,1429,458.46Z"/>
                  <path class="cls-14" d="M1414.22,431.72a5,5,0,1,1,5,4.74A4.85,4.85,0,0,1,1414.22,431.72Z"/>
                  <path class="cls-14" d="M1435.2,412.23a4,4,0,1,1,4,3.83A3.92,3.92,0,0,1,1435.2,412.23Z"/>
                  <path class="cls-14" d="M1439.19,435.54a4,4,0,1,1,4,3.84A3.92,3.92,0,0,1,1439.19,435.54Z"/>
                </g>
              </g>
            </g>
            <g>
              <g>
                <path class="cls-11" d="M1336.88,264.52l-61.38.2a10.67,10.67,0,0,0-10.86,10.47v5.5a10.69,10.69,0,0,0,10.94,10.4h.21a25.61,25.61,0,0,0-.19,3.29l.62,170.32c.07,16.38,14,29.62,31.09,29.56s30.92-13.38,30.86-29.77l-.62-170.31a30.71,30.71,0,0,0-.22-3.34,10.63,10.63,0,0,0,10.49-10.43l0-5.49a10.67,10.67,0,0,0-10.93-10.4"/>
                <g>
                  <path class="cls-12" d="M1336,252.46a6.72,6.72,0,0,1-6.85,6.62l-45.89.16a6.6,6.6,0,1,1,0-13.19l45.89-.15a6.72,6.72,0,0,1,6.9,6.56"/>
                  <rect class="cls-12" x="1282.07" y="252.57" width="48.19" height="15.38" transform="translate(-0.89 4.49) rotate(-0.2)"/>
                  <path class="cls-12" d="M1336,252.46a6.72,6.72,0,0,1-6.85,6.62l-45.89.16a6.6,6.6,0,1,1,0-13.19l45.89-.15a6.72,6.72,0,0,1,6.9,6.56"/>
                  <rect class="cls-12" x="1282.07" y="252.57" width="48.19" height="15.38" transform="translate(-0.89 4.49) rotate(-0.2)"/>
                </g>
              </g>
              <g>
                <path class="cls-15" d="M1332,348.05l.43,116.24c.06,13.33-11.17,24.16-25.09,24.22s-25.23-10.72-25.28-24.05l-.43-116.24"/>
                <g>
                  <path class="cls-14" d="M1295.05,444.78a7,7,0,1,1,7,6.7A6.85,6.85,0,0,1,1295.05,444.78Z"/>
                  <path class="cls-14" d="M1302,416.05a5,5,0,1,1,5,4.75A4.85,4.85,0,0,1,1302,416.05Z"/>
                  <path class="cls-14" d="M1302.14,469a4,4,0,1,1,4,3.82A3.91,3.91,0,0,1,1302.14,469Z"/>
                  <path class="cls-14" d="M1317.16,431.71a4,4,0,1,1,4,3.83A3.92,3.92,0,0,1,1317.16,431.71Z"/>
                </g>
              </g>
            </g>
            <g>
              <g>
                <path class="cls-11" d="M1586.13,263.67l-61.37.21a10.67,10.67,0,0,0-10.87,10.47l0,5.49a10.69,10.69,0,0,0,10.95,10.4h.2a25.66,25.66,0,0,0-.19,3.3l.62,170.32c.06,16.39,14,29.62,31.09,29.57s30.92-13.4,30.86-29.78l-.61-170.32a30.52,30.52,0,0,0-.24-3.33,10.63,10.63,0,0,0,10.5-10.43v-5.5a10.69,10.69,0,0,0-10.95-10.4"/>
                <g>
                  <path class="cls-12" d="M1585.22,251.62a6.72,6.72,0,0,1-6.85,6.62l-45.9.15a6.6,6.6,0,1,1,0-13.18l45.9-.16a6.74,6.74,0,0,1,6.9,6.57"/>
                  <polygon class="cls-12" points="1579.55 267.01 1531.36 267.18 1531.31 251.8 1579.49 251.64 1579.55 267.01"/>
                </g>
              </g>
              <g>
                <path class="cls-16" d="M1581.44,401.9l.22,61.55c0,13.32-11.19,24.17-25.1,24.22s-25.23-10.73-25.28-24.05l-.23-61.55"/>
                <g>
                  <path class="cls-14" d="M1541.42,427a7,7,0,1,1,7,6.69A6.84,6.84,0,0,1,1541.42,427Z"/>
                  <path class="cls-14" d="M1562.91,444.78a4,4,0,1,1,4,3.83A3.9,3.9,0,0,1,1562.91,444.78Z"/>
                  <path class="cls-14" d="M1544.4,465.15a4,4,0,1,1,4,3.83A3.92,3.92,0,0,1,1544.4,465.15Z"/>
                </g>
              </g>
            </g>
          </g>
          <g>
            <rect class="cls-12" x="1196.69" y="372.95" width="487.77" height="12.89"/>
            <rect class="cls-12" x="1368.89" y="378.55" width="13.45" height="140.97"/>
            <rect class="cls-12" x="1494.07" y="379.39" width="13.45" height="140.13"/>
            <g>
              <path class="cls-17" d="M1361.11,524h0c0-4.21,2.71-7.61,6.05-7.61h16c3.35,0,6.06,3.4,6.06,7.61h0"/>
              <path class="cls-12" d="M1390.61,524h-2.7c0-3.49-2.11-6.32-4.71-6.32h-16c-2.59,0-4.71,2.83-4.71,6.32h-2.68c0-4.91,3.31-8.9,7.39-8.9h16C1387.29,515.07,1390.61,519.06,1390.61,524Z"/>
            </g>
            <g>
              <path class="cls-17" d="M1486.73,524h0c0-4.21,2.7-7.61,6-7.61h16c3.34,0,6,3.4,6,7.61h0"/>
              <path class="cls-12" d="M1516.22,524h-2.69c0-3.49-2.11-6.32-4.71-6.32h-16c-2.6,0-4.71,2.83-4.71,6.32h-2.69c0-4.91,3.32-8.9,7.4-8.9h16C1512.9,515.07,1516.22,519.06,1516.22,524Z"/>
            </g>
          </g>
        </g>
        <g>
          <path class="cls-18" d="M1810.7,1021.26h-22.56c.2-3.61.31-7.67.31-12.23,0-1.14-.07-2.26-.18-3.37,42.37-18,72.06-58.9,72.06-106.41,0-54.48-39-100.3-91.44-112.78a21.93,21.93,0,0,0-14.3-12l18.93-60,.66.18a5.8,5.8,0,0,0,7.09-3.84l1.85-6.37a5.5,5.5,0,0,0-4-6.79L1723,682.73a5.81,5.81,0,0,0-7.09,3.84l-1.85,6.37a5.45,5.45,0,0,0,3,6.42l-34.83,110.47-1.41-.4-9.29,29.45,6,1.74a10.67,10.67,0,0,0-.67,1.59,9.92,9.92,0,0,0,3.37,10.75l-6.89,25.12a6.28,6.28,0,0,0,4.69,7.71l23.38,5.89a6.61,6.61,0,0,0,8-4.5l6.69-24.34a10.42,10.42,0,0,0,7.89-7,10.08,10.08,0,0,0,.36-1.68l6,1.74,9.28-29.44-1.4-.41,3.44-10.92a23,23,0,0,0,6.79,1,22.55,22.55,0,0,0,16-6.53c41,10.48,71.28,46.68,71.28,89.62,0,38.16-23.94,71-58,85.19a37,37,0,0,0-25.6-10.13,36.61,36.61,0,0,0-30.43,15.88,96.36,96.36,0,0,1-52.67-28.9h80.26V937.62H1635.49v23.67h3.5a11.4,11.4,0,0,0,1.45,2.87A120.42,120.42,0,0,0,1716,1013q.06,4.46.27,8.22h-85.17c-15,0-27.19,20.14-27.19,45h234C1837.88,1041.4,1825.71,1021.26,1810.7,1021.26Z"/>
          <g>
            <g>
              <path class="cls-19" d="M1731.72,1010.94c-40,0-77.29-19.16-99.69-51.25a11.44,11.44,0,0,1,3.37-16.29,12.62,12.62,0,0,1,17,3.23c17.85,25.57,47.49,40.83,79.31,40.83,52.76,0,95.68-41.58,95.68-92.68s-42.92-92.69-95.68-92.69a11.75,11.75,0,1,1,0-23.48c66.27,0,120.19,52.11,120.19,116.17S1798,1010.94,1731.72,1010.94Z"/>
              <polygon class="cls-20" points="1741.71 956.81 1741.71 956.81 1627.86 956.81 1627.86 956.81 1627.86 933.14 1627.86 933.14 1741.71 933.14 1741.71 933.14 1741.71 956.81"/>
              <g>
                <path class="cls-20" d="M1596.24,1061.77h0c0-24.84,12.17-45,27.19-45h179.63c15,0,27.19,20.14,27.19,45h0"/>
                <g>
                  <path class="cls-21" d="M1780.81,1004.56c0,57.21-16.23,34.72-36.25,34.72s-36.26,22.49-36.26-34.72c0-19.18,16.23-34.73,36.26-34.73S1780.81,985.38,1780.81,1004.56Z"/>
                  <path class="cls-19" d="M1733.31,998.82a11.25,11.25,0,1,1,11.24,10.77A11,11,0,0,1,1733.31,998.82Z"/>
                </g>
              </g>
            </g>
            <g>
              <g>
                <path class="cls-19" d="M1701.84,882.71a6.63,6.63,0,0,1-8,4.5l-23.37-5.89a6.29,6.29,0,0,1-4.7-7.71l11.18-40.7a6.63,6.63,0,0,1,8-4.5l23.38,5.89A6.3,6.3,0,0,1,1713,842Z"/>
                <g>
                  <path class="cls-21" d="M1716.42,851.38a10.69,10.69,0,0,1-13.23,6.79l-26.84-7.75a10.11,10.11,0,0,1-7.1-12.68h0a10.7,10.7,0,0,1,13.23-6.8l26.85,7.76a10.1,10.1,0,0,1,7.09,12.68Z"/>
                  <polygon class="cls-21" points="1721.63 850.33 1665.5 834.11 1710.09 692.72 1766.21 708.95 1721.63 850.33"/>
                  <polygon class="cls-20" points="1722.82 851.44 1663.87 834.4 1673.16 804.95 1732.1 822 1722.82 851.44"/>
                </g>
                <path class="cls-20" d="M1773.64,706.33a5.79,5.79,0,0,1-7.09,3.84l-56.15-14.91a5.49,5.49,0,0,1-4-6.79l1.84-6.37a5.8,5.8,0,0,1,7.09-3.84l56.15,14.92a5.48,5.48,0,0,1,4,6.79Z"/>
              </g>
              <path class="cls-20" d="M1718.77,790.46c0-11.72,9.92-21.22,22.16-21.22s22.17,9.5,22.17,21.22-9.92,21.23-22.17,21.23S1718.77,802.18,1718.77,790.46Z"/>
            </g>
          </g>
        </g>
        <g>
          <g>
            <g>
              <g class="cls-2">
                <path d="M920.44,413.47c-21.4,0-41.25-20.73-55.89-58.38-14.27-36.7-22.13-85.41-22.13-137.17s7.86-100.48,22.13-137.17C879.19,43.1,899,22.36,920.44,22.36s41.25,20.74,55.9,58.39c14.27,36.69,22.13,85.41,22.13,137.17s-7.86,100.47-22.13,137.17C961.69,392.74,941.84,413.47,920.44,413.47Zm0-384.66c-18.28,0-36.46,19.79-49.88,54.28-14,36-21.69,83.85-21.69,134.83s7.7,98.86,21.69,134.83C884,387.24,902.16,407,920.44,407s36.47-19.78,49.88-54.27c14-36,21.69-83.85,21.69-134.83s-7.7-98.87-21.69-134.83C956.91,48.6,938.73,28.81,920.44,28.81Z"/>
              </g>
              <path class="cls-22" d="M920.44,409.61c-21.4,0-41.25-20.74-55.89-58.39-14.27-36.69-22.13-85.41-22.13-137.17s7.86-100.47,22.13-137.16C879.19,39.23,899,18.5,920.44,18.5s41.25,20.73,55.9,58.39c14.27,36.69,22.13,85.4,22.13,137.16s-7.86,100.48-22.13,137.17C961.69,388.87,941.84,409.61,920.44,409.61Zm0-384.66C902.16,25,884,44.73,870.56,79.22c-14,36-21.69,83.85-21.69,134.83s7.7,98.87,21.69,134.83c13.42,34.49,31.6,54.28,49.88,54.28s36.47-19.79,49.88-54.28c14-36,21.69-83.85,21.69-134.83s-7.7-98.86-21.69-134.83C956.91,44.73,938.73,25,920.44,25Z"/>
            </g>
            <g>
              <g class="cls-2">
                <path d="M1041.87,333.77c-42.27,0-104.81-23-163.21-60.09-34.27-21.74-64.6-46.5-87.7-71.58-22.73-24.69-36.94-48-41.09-67.35-2.57-12-1.19-22.13,4.09-30.13C761.63,93,777.21,86.85,799,86.85c42.27,0,104.81,23,163.21,60.09,34.27,21.74,64.6,46.5,87.71,71.59,22.72,24.68,36.93,48,41.08,67.35,2.57,12,1.19,22.13-4.09,30.12C1079.27,327.62,1063.68,333.77,1041.87,333.77ZM799,91.16c-20.3,0-34.65,5.47-41.48,15.83-4.62,7-5.79,16-3.47,26.86,8.25,38.55,59.24,93.28,126.88,136.2,57.76,36.65,119.41,59.42,160.91,59.42,20.3,0,34.64-5.48,41.48-15.84,4.62-7,5.79-16,3.47-26.85-8.25-38.56-59.24-93.29-126.88-136.21C902.18,113.92,840.53,91.16,799,91.16Z"/>
              </g>
              <path class="cls-22" d="M1041.86,329.9c-42.26,0-104.8-23-163.2-60.08-34.27-21.75-64.6-46.5-87.7-71.59-22.73-24.68-36.94-48-41.09-67.35-2.57-12-1.19-22.13,4.09-30.13C761.63,89.13,777.21,83,799,83c42.27,0,104.81,23,163.21,60.08,34.27,21.75,64.6,46.5,87.7,71.59,22.73,24.68,36.94,48,41.09,67.35,2.57,12,1.19,22.13-4.09,30.13C1079.27,323.76,1063.68,329.9,1041.86,329.9ZM799,87.29c-20.3,0-34.65,5.48-41.48,15.83-4.62,7-5.79,16-3.47,26.86,8.25,38.55,59.24,93.29,126.88,136.2,57.76,36.65,119.41,59.42,160.9,59.42,20.31,0,34.65-5.48,41.49-15.83,4.62-7,5.79-16,3.47-26.86-8.25-38.55-59.24-93.29-126.88-136.2C902.18,110.06,840.53,87.29,799,87.29Z"/>
            </g>
            <g>
              <g class="cls-2">
                <path d="M799,333.77h0c-21.82,0-37.41-6.15-45.08-17.77-5.28-8-6.65-18.13-4.09-30.13C754,266.5,768.22,243.21,791,218.53c23.1-25.09,53.43-49.85,87.7-71.59,58.41-37.06,121-60.09,163.21-60.09,21.82,0,37.4,6.15,45.08,17.77,5.28,8,6.65,18.13,4.08,30.13-4.15,19.38-18.35,42.66-41.08,67.35-23.11,25.08-53.43,49.84-87.71,71.58C903.83,310.74,841.29,333.77,799,333.77ZM1041.86,91.16c-41.49,0-103.15,22.76-160.9,59.41-67.64,42.92-118.63,97.65-126.89,136.21-2.32,10.82-1.15,19.86,3.47,26.85,6.84,10.36,21.18,15.83,41.49,15.84h0c41.48,0,103.13-22.77,160.89-59.42,67.64-42.91,118.63-97.65,126.89-136.2C1089.13,123,1088,114,1083.35,107,1076.51,96.63,1062.16,91.16,1041.86,91.16Z"/>
              </g>
              <path class="cls-22" d="M799,329.9h0c-21.82,0-37.41-6.14-45.08-17.76-5.28-8-6.65-18.14-4.09-30.13,4.15-19.38,18.36-42.67,41.09-67.35,23.1-25.09,53.43-49.84,87.7-71.59C937.06,106,999.6,83,1041.86,83c21.82,0,37.4,6.14,45.08,17.76,5.28,8,6.65,18.14,4.08,30.13-4.15,19.38-18.35,42.67-41.08,67.35-23.11,25.09-53.43,49.84-87.71,71.59C903.83,306.88,841.3,329.9,799,329.9ZM1041.86,87.29c-41.49,0-103.15,22.77-160.9,59.41-67.64,42.92-118.63,97.66-126.89,136.21-2.32,10.82-1.15,19.86,3.47,26.86,6.84,10.35,21.18,15.83,41.49,15.83h0c41.49,0,103.13-22.76,160.89-59.41,67.64-42.92,118.63-97.66,126.89-136.21,2.31-10.82,1.15-19.86-3.47-26.86C1076.51,92.77,1062.16,87.29,1041.86,87.29Z"/>
            </g>
          </g>
          <g>
            <g>
              <g class="cls-2">
                <path d="M893.6,203.8c0-17.26,14.27-31.25,31.88-31.25s31.88,14,31.88,31.25-14.28,31.25-31.88,31.25S893.6,221.06,893.6,203.8Z"/>
              </g>
              <ellipse class="cls-23" cx="920.45" cy="199.93" rx="31.88" ry="31.25"/>
            </g>
            <g>
              <g class="cls-2">
                <path d="M1071.53,153.82a12,12,0,1,1,12,11.73A11.84,11.84,0,0,1,1071.53,153.82Z"/>
              </g>
              <path class="cls-24" d="M1066.5,150a12,12,0,1,1,12,11.74A11.85,11.85,0,0,1,1066.5,150Z"/>
            </g>
            <g>
              <g class="cls-2">
                <path d="M1006,323c0-5.79,5-10.49,11.19-10.49s11.17,4.7,11.17,10.49-5,10.5-11.17,10.5S1006,328.79,1006,323Z"/>
              </g>
              <path class="cls-25" d="M1008.17,321.12c0-5.79,5-10.49,11.18-10.49s11.18,4.7,11.18,10.49-5,10.5-11.18,10.5S1008.17,326.92,1008.17,321.12Z"/>
            </g>
            <g>
              <g class="cls-2">
                <path d="M906.27,22.68a19.2,19.2,0,0,1,38.39,0,19.2,19.2,0,0,1-38.39,0Z"/>
              </g>
              <path class="cls-26" d="M901.25,18.82a19.19,19.19,0,0,1,38.38,0,19.19,19.19,0,0,1-38.38,0Z"/>
            </g>
          </g>
        </g>
        <text class="cls-27" transform="translate(213.46 780.8)">Н<tspan class="cls-28" x="151.59" y="0">а</tspan><tspan x="261.45" y="0">у</tspan><tspan class="cls-29" x="370.87" y="0">к</tspan><tspan x="483.47" y="0">ові </tspan><tspan class="cls-30" x="836.83" y="0">с</tspan><tspan class="cls-31" x="939.08" y="0">та</tspan><tspan class="cls-32" x="1153.71" y="0">т</tspan><tspan class="cls-31" x="1259.77" y="0">ті</tspan></text>
      </g>
    </g>
  </g>
</svg>
