<svg xmlns="http://www.w3.org/2000/svg" viewBox="0 0 254.5 100.2">
  <defs>
    <style>
      .cls-1 {
        opacity: 0.15;
      }

      .cls-2 {
        fill: #282828;
      }

      .cls-3 {
        fill: #a3a3a3;
      }

      .cls-4 {
        fill: #9b9b9b;
      }

      .cls-5 {
        fill: #b4b4b4;
      }

      .cls-6 {
        fill: #878787;
      }
    </style>
  </defs>
  <title>Asset 65</title>
  <g id="Layer_2" data-name="Layer 2">
    <g id="Layer_1-2" data-name="Layer 1">
      <g>
        <g>
          <g>
            <g class="cls-1">
              <path d="M123.8,100.2c-5.2,0-10-5-13.5-14.1-3.5-8.9-5.4-20.7-5.4-33.2s1.9-24.3,5.4-33.2c3.5-9.1,8.4-14.1,13.5-14.1s10,5,13.5,14.1c3.5,8.9,5.4,20.7,5.4,33.2s-1.9,24.3-5.4,33.2S129,100.2,123.8,100.2Zm0-93.2c-4.4,0-8.8,4.8-12.1,13.1-3.4,8.7-5.3,20.3-5.3,32.7s1.9,23.9,5.3,32.7c3.2,8.4,7.7,13.1,12.1,13.1s8.8-4.8,12.1-13.1c3.4-8.7,5.3-20.3,5.3-32.7s-1.9-23.9-5.3-32.7C132.6,11.8,128.2,7,123.8,7Z"/>
            </g>
            <path class="cls-2" d="M123.8,99.2c-5.2,0-10-5-13.5-14.1-3.5-8.9-5.4-20.7-5.4-33.2s1.9-24.3,5.4-33.2c3.5-9.1,8.4-14.1,13.5-14.1s10,5,13.5,14.1c3.5,8.9,5.4,20.7,5.4,33.2s-1.9,24.3-5.4,33.2C133.8,94.2,129,99.2,123.8,99.2Zm0-93.1c-4.4,0-8.8,4.8-12.1,13.1-3.4,8.7-5.3,20.3-5.3,32.7s1.9,23.9,5.3,32.7c3.2,8.4,7.7,13.1,12.1,13.1s8.8-4.8,12.1-13.1c3.4-8.7,5.3-20.3,5.3-32.7s-1.9-23.9-5.3-32.7C132.6,10.9,128.2,6.1,123.8,6.1Z"/>
          </g>
          <g>
            <g class="cls-1">
              <path d="M153.2,80.9c-10.2,0-25.4-5.6-39.5-14.6A111.15,111.15,0,0,1,92.5,49c-5.5-6-8.9-11.6-9.9-16.3-.6-2.9-.3-5.4,1-7.3,1.9-2.8,5.6-4.3,10.9-4.3,10.2,0,25.4,5.6,39.5,14.6A111.15,111.15,0,0,1,155.2,53c5.5,6,8.9,11.6,9.9,16.3.6,2.9.3,5.4-1,7.3C162.3,79.4,158.5,80.9,153.2,80.9ZM94.4,22.1c-4.9,0-8.4,1.3-10,3.8a8.25,8.25,0,0,0-.8,6.5c2,9.3,14.3,22.6,30.7,33,14,8.9,28.9,14.4,39,14.4,4.9,0,8.4-1.3,10-3.8a8.25,8.25,0,0,0,.8-6.5c-2-9.3-14.3-22.6-30.7-33C119.4,27.6,104.5,22.1,94.4,22.1Z"/>
            </g>
            <path class="cls-2" d="M153.2,79.9c-10.2,0-25.4-5.6-39.5-14.6A111.15,111.15,0,0,1,92.5,48c-5.5-6-8.9-11.6-9.9-16.3-.6-2.9-.3-5.4,1-7.3,1.9-2.8,5.6-4.3,10.9-4.3,10.2,0,25.4,5.6,39.5,14.6A111.15,111.15,0,0,1,155.2,52c5.5,6,8.9,11.6,9.9,16.3.6,2.9.3,5.4-1,7.3C162.3,78.4,158.5,79.9,153.2,79.9ZM94.4,21.2c-4.9,0-8.4,1.3-10,3.8a8.25,8.25,0,0,0-.8,6.5c2,9.3,14.3,22.6,30.7,33,14,8.9,28.9,14.4,39,14.4,4.9,0,8.4-1.3,10-3.8a8.25,8.25,0,0,0,.8-6.5c-2-9.3-14.3-22.6-30.7-33C119.4,26.7,104.5,21.2,94.4,21.2Z"/>
          </g>
          <g>
            <g class="cls-1">
              <path d="M94.4,80.9h0c-5.3,0-9.1-1.5-10.9-4.3-1.3-1.9-1.6-4.4-1-7.3,1-4.7,4.4-10.3,9.9-16.3a104.07,104.07,0,0,1,21.2-17.3c14.1-9,29.3-14.6,39.5-14.6,5.3,0,9.1,1.5,10.9,4.3,1.3,1.9,1.6,4.4,1,7.3-1,4.7-4.4,10.3-9.9,16.3a104.07,104.07,0,0,1-21.2,17.3C119.8,75.3,104.6,80.9,94.4,80.9Zm58.8-58.8c-10,0-25,5.5-39,14.4-16.4,10.4-28.7,23.6-30.7,33a8.25,8.25,0,0,0,.8,6.5c1.7,2.5,5.1,3.8,10,3.8h0c10,0,25-5.5,39-14.4C149.7,55,162,41.8,164,32.4a8.25,8.25,0,0,0-.8-6.5C161.6,23.4,158.1,22.1,153.2,22.1Z"/>
            </g>
            <path class="cls-2" d="M94.4,79.9h0c-5.3,0-9.1-1.5-10.9-4.3-1.3-1.9-1.6-4.4-1-7.3,1-4.7,4.4-10.3,9.9-16.3a104.07,104.07,0,0,1,21.2-17.3c14.1-9,29.3-14.6,39.5-14.6,5.3,0,9.1,1.5,10.9,4.3,1.3,1.9,1.6,4.4,1,7.3-1,4.7-4.4,10.3-9.9,16.3a104.94,104.94,0,0,1-21.2,17.4C119.8,74.4,104.6,79.9,94.4,79.9Zm58.8-58.7c-10,0-25,5.5-39,14.4C97.8,46,85.5,59.2,83.5,68.6a8.25,8.25,0,0,0,.8,6.5c1.7,2.5,5.1,3.8,10,3.8h0c10,0,25-5.5,39-14.4,16.4-10.4,28.7-23.6,30.7-33a8.25,8.25,0,0,0-.8-6.5C161.6,22.5,158.1,21.2,153.2,21.2Z"/>
          </g>
        </g>
        <g>
          <g>
            <g class="cls-1">
              <path d="M117.3,49.4A7.7,7.7,0,1,1,125,57,7.68,7.68,0,0,1,117.3,49.4Z"/>
            </g>
            <ellipse class="cls-3" cx="123.8" cy="48.5" rx="7.7" ry="7.6"/>
          </g>
          <g>
            <g class="cls-1">
              <path d="M160.4,37.3a2.82,2.82,0,0,1,2.9-2.8,2.88,2.88,0,0,1,2.9,2.8,2.9,2.9,0,0,1-5.8,0Z"/>
            </g>
            <path class="cls-4" d="M159.2,36.3a2.82,2.82,0,0,1,2.9-2.8,2.88,2.88,0,0,1,2.9,2.8,2.82,2.82,0,0,1-2.9,2.8A2.76,2.76,0,0,1,159.2,36.3Z"/>
          </g>
          <g>
            <g class="cls-1">
              <path d="M144.5,78.3a2.71,2.71,0,1,1,2.7,2.5A2.65,2.65,0,0,1,144.5,78.3Z"/>
            </g>
            <path class="cls-5" d="M145.1,77.8a2.71,2.71,0,1,1,2.7,2.5A2.59,2.59,0,0,1,145.1,77.8Z"/>
          </g>
          <g>
            <g class="cls-1">
              <path d="M120.4,5.5A4.65,4.65,0,0,1,125,.9a4.53,4.53,0,0,1,4.6,4.6,4.6,4.6,0,0,1-9.2,0Z"/>
            </g>
            <path class="cls-6" d="M119.2,4.6A4.65,4.65,0,0,1,123.8,0a4.53,4.53,0,0,1,4.6,4.6,4.6,4.6,0,0,1-9.2,0Z"/>
          </g>
        </g>
      </g>
      <g>
        <path class="cls-2" d="M.1,40.8a23.4,23.4,0,0,1,4.2-.3A6.76,6.76,0,0,1,9,41.9a4.58,4.58,0,0,1,1.5,3.5A5.27,5.27,0,0,1,9.2,49,7.19,7.19,0,0,1,4,50.9a5,5,0,0,1-1.8-.2v6.8H0V40.8Zm2.2,8.1a9,9,0,0,0,1.8.2c2.6,0,4.2-1.3,4.2-3.6s-1.6-3.3-4-3.3a9.1,9.1,0,0,0-2.1.2v6.5Z"/>
        <path class="cls-2" d="M13.4,40.6h2.2v15h7.2v1.8H13.4Z"/>
        <path class="cls-2" d="M26.5,40.6v10c0,3.8,1.7,5.4,3.9,5.4,2.5,0,4.1-1.7,4.1-5.4v-10h2.2v9.8c0,5.2-2.7,7.3-6.4,7.3-3.5,0-6.1-2-6.1-7.2V40.6Z"/>
        <path class="cls-2" d="M40.5,40.8a25,25,0,0,1,4.2-.4c2.3,0,3.8.4,4.9,1.4A4.08,4.08,0,0,1,50.9,45a4.44,4.44,0,0,1-3.2,4.3v.1a4.38,4.38,0,0,1,2.5,3.4,34.9,34.9,0,0,0,1.3,4.6H49.2a16.16,16.16,0,0,1-1.1-4c-.5-2.3-1.4-3.2-3.4-3.3H42.6v7.3H40.4V40.8Zm2.2,7.7h2.2c2.3,0,3.8-1.3,3.8-3.2,0-2.2-1.6-3.1-3.9-3.2a9.47,9.47,0,0,0-2.2.2v6.2Z"/>
        <path class="cls-2" d="M56.8,52.1,55,57.4H52.7l5.7-16.9h2.8L67,57.4H64.7l-1.9-5.3Zm5.5-1.7-1.7-4.9c-.4-1.1-.6-2.1-.9-3.1h-.1c-.3,1-.5,2-.9,3.1L57,50.4Z"/>
        <path class="cls-2" d="M69.4,40.6h2.2v15h7.2v1.8H69.4Z"/>
      </g>
      <g>
        <path class="cls-2" d="M168.7,54.8a7.78,7.78,0,0,0,3.9,1.1c2.2,0,3.5-1.2,3.5-2.9s-.9-2.5-3.2-3.4c-2.8-1-4.5-2.4-4.5-4.8,0-2.6,2.2-4.6,5.5-4.6a7.8,7.8,0,0,1,3.7.8l-.6,1.8a7,7,0,0,0-3.2-.8c-2.3,0-3.2,1.4-3.2,2.5,0,1.6,1,2.4,3.4,3.3,2.9,1.1,4.3,2.5,4.3,5s-1.9,4.9-5.9,4.9a8.77,8.77,0,0,1-4.3-1.1Z"/>
        <path class="cls-2" d="M193.1,56.9a10.89,10.89,0,0,1-4.5.8c-4.8,0-8.3-3-8.3-8.5,0-5.3,3.6-8.9,8.8-8.9a8.92,8.92,0,0,1,4,.8l-.5,1.8a7.84,7.84,0,0,0-3.4-.7c-4,0-6.6,2.5-6.6,7,0,4.1,2.4,6.8,6.5,6.8a9.61,9.61,0,0,0,3.6-.7Z"/>
        <path class="cls-2" d="M198,40.6V57.5h-2.2V40.6Z"/>
        <path class="cls-2" d="M210.6,49.5H204v6.1h7.3v1.8h-9.5V40.6h9.1v1.8H204v5.3h6.6v1.8Z"/>
        <path class="cls-2" d="M214.1,57.4V40.6h2.4l5.4,8.5a44.2,44.2,0,0,1,3,5.5h.1c-.2-2.3-.3-4.3-.3-6.9V40.6h2.1V57.5h-2.2l-5.4-8.6c-1.2-1.9-2.3-3.8-3.2-5.6h-.1c.1,2.1.2,4.2.2,7v7.2h-2Z"/>
        <path class="cls-2" d="M242.4,56.9a10.89,10.89,0,0,1-4.5.8c-4.8,0-8.3-3-8.3-8.5,0-5.3,3.6-8.9,8.8-8.9a8.92,8.92,0,0,1,4,.8l-.5,1.8a7.84,7.84,0,0,0-3.4-.7c-4,0-6.6,2.5-6.6,7,0,4.1,2.4,6.8,6.5,6.8a9.61,9.61,0,0,0,3.6-.7Z"/>
        <path class="cls-2" d="M253.8,49.5h-6.6v6.1h7.3v1.8H245V40.6h9.1v1.8h-6.9v5.3h6.6Z"/>
      </g>
    </g>
  </g>
</svg>
