<svg xmlns="http://www.w3.org/2000/svg" viewBox="0 0 1898.68 913.76"><defs><style>.cls-1{isolation:isolate;}.cls-2{opacity:0.15;mix-blend-mode:multiply;}.cls-3{fill:#9e9e9e;}.cls-4{fill:#a4a4a4;}.cls-5{fill:#9c9c9c;}.cls-6{fill:#b4b4b4;}.cls-7{fill:#878787;}</style></defs><title>Asset 365</title><g class="cls-1"><g id="Layer_2" data-name="Layer 2"><g id="Layer_1-2" data-name="Layer 1"><g class="cls-2"><path d="M933,774.84c-40.1,0-77.3-38.86-104.75-109.42-26.74-68.76-41.46-160-41.46-257s14.72-188.29,41.46-257C855.71,80.77,892.91,41.91,933,41.91s77.31,38.86,104.75,109.42c26.74,68.75,41.47,160,41.47,257s-14.73,188.29-41.47,257C1010.32,736,973.12,774.84,933,774.84ZM933,54c-34.26,0-68.34,37.07-93.48,101.71-26.21,67.39-40.64,157.13-40.64,252.66S813.32,593.64,839.53,661c25.14,64.64,59.22,101.71,93.48,101.71s68.34-37.07,93.48-101.71c26.21-67.4,40.65-157.13,40.65-252.67s-14.44-185.27-40.65-252.66C1001.35,91.07,967.28,54,933,54Z" transform="translate(-14.34)"/></g><path class="cls-3" d="M933,767.6c-40.1,0-77.3-38.86-104.75-109.42-26.74-68.76-41.46-160-41.46-257s14.72-188.29,41.46-257C855.71,73.52,892.91,34.66,933,34.66s77.31,38.86,104.75,109.42c26.74,68.76,41.47,160,41.47,257s-14.73,188.29-41.47,257C1010.32,728.74,973.12,767.6,933,767.6Zm0-720.85c-34.26,0-68.34,37.08-93.48,101.71-26.21,67.4-40.64,157.13-40.64,252.67s14.43,185.27,40.64,252.66c25.14,64.64,59.22,101.72,93.48,101.72s68.34-37.08,93.48-101.72c26.21-67.39,40.65-157.12,40.65-252.66s-14.44-185.27-40.65-252.67C1001.35,83.83,967.28,46.75,933,46.75Z" transform="translate(-14.34)"/><g class="cls-2"><path d="M1160.56,625.47c-79.2,0-196.4-43.14-305.85-112.59-64.22-40.75-121.06-87.14-164.35-134.16-42.6-46.25-69.22-89.89-77-126.2C608.55,230,611.13,211,621,196.06c14.38-21.78,43.59-33.3,84.47-33.3,79.21,0,196.4,43.15,305.85,112.6,64.23,40.75,121.06,87.14,164.36,134.16,42.59,46.25,69.22,89.89,77,126.21,4.81,22.47,2.24,41.47-7.66,56.45C1230.65,614,1201.44,625.47,1160.56,625.47ZM705.49,170.83c-38,0-64.93,10.26-77.74,29.67-8.66,13.11-10.84,30-6.5,50.33,15.47,72.24,111,174.82,237.78,255.24,108.23,68.68,223.77,111.34,301.53,111.34,38,0,64.93-10.26,77.75-29.67,8.65-13.11,10.84-30,6.5-50.33-15.47-72.24-111-174.82-237.78-255.24C898.79,213.49,783.25,170.83,705.49,170.83Z" transform="translate(-14.34)"/></g><path class="cls-3" d="M1160.56,618.23c-79.21,0-196.4-43.14-305.85-112.6-64.22-40.75-121.06-87.14-164.35-134.15-42.6-46.25-69.22-89.9-77-126.21-4.81-22.48-2.23-41.47,7.66-56.46,14.38-21.78,43.59-33.29,84.47-33.29,79.21,0,196.4,43.14,305.85,112.6,64.23,40.74,121.06,87.14,164.36,134.15,42.59,46.26,69.22,89.9,77,126.21,4.81,22.48,2.24,41.47-7.66,56.46C1230.65,606.72,1201.44,618.23,1160.56,618.23ZM705.49,163.58c-38,0-64.93,10.26-77.74,29.67-8.66,13.12-10.84,30.05-6.5,50.34,15.47,72.24,111,174.81,237.78,255.24,108.23,68.68,223.77,111.34,301.53,111.34,38,0,64.93-10.26,77.75-29.67,8.65-13.12,10.84-30,6.5-50.33-15.47-72.25-111-174.82-237.78-255.25C898.79,206.25,783.25,163.58,705.49,163.58Z" transform="translate(-14.34)"/><g class="cls-2"><path d="M705.5,625.47h0c-40.88,0-70.09-11.51-84.47-33.29-9.89-15-12.47-34-7.66-56.46,7.78-36.31,34.4-80,77-126.2,43.29-47,100.13-93.41,164.35-134.16,109.45-69.45,226.64-112.6,305.85-112.6,40.89,0,70.09,11.52,84.47,33.3,9.89,15,12.47,34,7.66,56.46-7.78,36.31-34.4,80-77,126.2-43.3,47-100.13,93.41-164.36,134.16C901.88,582.33,784.69,625.47,705.5,625.47Zm455.05-454.64c-77.76,0-193.3,42.66-301.53,111.34-126.76,80.42-222.31,183-237.78,255.24-4.35,20.29-2.16,37.22,6.5,50.33,12.81,19.41,39.69,29.67,77.74,29.67h0c77.75,0,193.28-42.66,301.51-111.34,126.76-80.42,222.32-183,237.78-255.24,4.35-20.29,2.16-37.22-6.5-50.33C1225.48,181.09,1198.6,170.83,1160.55,170.83Z" transform="translate(-14.34)"/></g><path class="cls-3" d="M705.5,618.23h0c-40.89,0-70.1-11.51-84.48-33.29-9.89-15-12.47-34-7.66-56.46,7.78-36.31,34.4-80,77-126.21,43.29-47,100.13-93.41,164.35-134.16,109.45-69.45,226.64-112.59,305.85-112.59,40.89,0,70.09,11.51,84.47,33.29,9.89,15,12.47,34,7.66,56.46-7.78,36.32-34.4,80-77,126.21-43.3,47-100.13,93.4-164.36,134.15C901.89,575.08,784.7,618.23,705.5,618.23Zm455.05-454.65c-77.76,0-193.3,42.67-301.53,111.34-126.76,80.43-222.31,183-237.78,255.25-4.35,20.28-2.16,37.21,6.5,50.33,12.81,19.41,39.7,29.67,77.75,29.67h0c77.75,0,193.28-42.66,301.51-111.34,126.76-80.43,222.32-183,237.78-255.24,4.35-20.29,2.16-37.22-6.5-50.34C1225.48,173.84,1198.6,163.58,1160.55,163.58Z" transform="translate(-14.34)"/><g class="cls-2"><path d="M882.7,381.92c0-32.35,26.75-58.57,59.75-58.57s59.75,26.22,59.75,58.57-26.75,58.57-59.75,58.57S882.7,414.26,882.7,381.92Z" transform="translate(-14.34)"/></g><ellipse class="cls-4" cx="918.69" cy="374.67" rx="59.74" ry="58.57"/><g class="cls-2"><path d="M1216.14,288.25a22.43,22.43,0,1,1,22.43,22A22.21,22.21,0,0,1,1216.14,288.25Z" transform="translate(-14.34)"/></g><path class="cls-5" d="M1206.72,281a22.43,22.43,0,1,1,22.43,22A22.21,22.21,0,0,1,1206.72,281Z" transform="translate(-14.34)"/><g class="cls-2"><path d="M1093.39,605.28c0-10.86,9.38-19.67,21-19.67s20.94,8.81,20.94,19.67S1125.91,625,1114.35,625,1093.39,616.15,1093.39,605.28Z" transform="translate(-14.34)"/></g><path class="cls-6" d="M1097.42,601.78c0-10.87,9.38-19.67,20.95-19.67s21,8.8,21,19.67-9.38,19.66-21,19.66S1097.42,612.64,1097.42,601.78Z" transform="translate(-14.34)"/><g class="cls-2"><path d="M906.46,42.51c0-19.48,16.11-35.27,36-35.27s36,15.79,36,35.27-16.11,35.26-36,35.26S906.46,62,906.46,42.51Z" transform="translate(-14.34)"/></g><path class="cls-7" d="M897.05,35.26C897.05,15.79,913.15,0,933,0s36,15.79,36,35.26-16.1,35.26-36,35.26S897.05,54.74,897.05,35.26Z" transform="translate(-14.34)"/><path class="cls-3" d="M14.34,317.13a190.56,190.56,0,0,1,31.52-2.45c16.22,0,28.11,3.77,35.66,10.56,7,6,11.13,15.29,11.13,26.61,0,11.51-3.39,20.57-9.81,27.17C74.16,388.27,60,393,44,393a56.67,56.67,0,0,1-13.21-1.13v50.95H14.34Zm16.42,61.33a55.19,55.19,0,0,0,13.59,1.32c19.81,0,31.89-9.62,31.89-27.17,0-16.8-11.89-24.91-30-24.91-7.17,0-12.64.56-15.47,1.32Z" transform="translate(-14.34)"/><path class="cls-3" d="M114.73,315.62h16.42V429H185.5v13.78H114.73Z" transform="translate(-14.34)"/><path class="cls-3" d="M213.42,315.62v75.29c0,28.5,12.64,40.57,29.63,40.57,18.87,0,30.95-12.45,30.95-40.57V315.62h16.6v74.16c0,39.06-20.57,55.1-48.12,55.1-26,0-45.66-14.91-45.66-54.34V315.62Z" transform="translate(-14.34)"/><path class="cls-3" d="M319.09,317.32c8.31-1.7,20.2-2.64,31.52-2.64,17.55,0,28.87,3.2,36.79,10.38,6.42,5.66,10,14.34,10,24.15,0,16.79-10.57,27.93-24,32.46v.56c9.81,3.4,15.66,12.46,18.68,25.67,4.15,17.73,7.17,30,9.82,34.91H385c-2.07-3.59-4.9-14.53-8.49-30.39-3.77-17.55-10.57-24.15-25.48-24.72H335.51v55.11H319.09Zm16.42,57.93h16.8c17.55,0,28.68-9.62,28.68-24.15,0-16.42-11.89-23.59-29.25-23.78-7.93,0-13.59.75-16.23,1.51Z" transform="translate(-14.34)"/><path class="cls-3" d="M442.13,402.8l-13.21,40h-17l43.22-127.19H475l43.4,127.19H500.81l-13.58-40ZM483.83,390l-12.46-36.61c-2.83-8.3-4.71-15.85-6.6-23.21h-.38c-1.88,7.55-4,15.28-6.41,23L445.52,390Z" transform="translate(-14.34)"/><path class="cls-3" d="M537,315.62h16.42V429h54.35v13.78H537Z" transform="translate(-14.34)"/><path class="cls-3" d="M328.91,791.76H298V780.6h75.25v11.16H342.18v90.48H328.91Z" transform="translate(-14.34)"/><path class="cls-3" d="M383.05,775.17h13.27v45.54h.3a24.59,24.59,0,0,1,9.5-9.34,27.25,27.25,0,0,1,13.58-3.78c9.8,0,25.48,6,25.48,31.22v43.43H431.91V840.32c0-11.76-4.37-21.72-16.89-21.72-8.59,0-15.38,6-17.79,13.27a16,16,0,0,0-.91,6.34v44H383.05Z" transform="translate(-14.34)"/><path class="cls-3" d="M474.13,848.16c.3,18,11.77,25.34,25,25.34,9.5,0,15.23-1.66,20.2-3.77l2.27,9.5c-4.68,2.11-12.67,4.52-24.28,4.52-22.47,0-35.89-14.78-35.89-36.8s13-39.36,34.23-39.36c23.82,0,30.16,21,30.16,34.39a50.38,50.38,0,0,1-.45,6.18Zm38.91-9.5c.15-8.45-3.47-21.56-18.4-21.56-13.42,0-19.3,12.36-20.36,21.56Z" transform="translate(-14.34)"/><path class="cls-3" d="M637.14,809.25c-.3,5.28-.6,11.16-.6,20.06v42.38c0,16.73-3.32,27-10.4,33.32-7.09,6.64-17.35,8.75-26.55,8.75-8.74,0-18.39-2.11-24.27-6l3.31-10.11a41.15,41.15,0,0,0,21.42,5.73c13.57,0,23.52-7.08,23.52-25.48v-8.14h-.3c-4.07,6.78-11.91,12.21-23.22,12.21-18.1,0-31.07-15.38-31.07-35.59,0-24.73,16.14-38.76,32.88-38.76,12.66,0,19.6,6.64,22.77,12.67h.3l.6-11Zm-13.72,28.81a18.91,18.91,0,0,0-.75-6c-2.42-7.7-8.9-14-18.55-14-12.67,0-21.72,10.71-21.72,27.6,0,14.32,7.24,26.24,21.57,26.24a19.41,19.41,0,0,0,18.4-13.58,23.15,23.15,0,0,0,1-7.08Z" transform="translate(-14.34)"/><path class="cls-3" d="M657.65,832c0-8.6-.15-16-.6-22.78h11.61l.45,14.33h.61c3.31-9.8,11.31-16,20.2-16a14.36,14.36,0,0,1,3.77.46v12.51a20,20,0,0,0-4.52-.45c-9.35,0-16,7.09-17.8,17a37.53,37.53,0,0,0-.6,6.18v38.91H657.65Z" transform="translate(-14.34)"/><path class="cls-3" d="M746.62,882.24l-1-9.2h-.45C741,878.77,733.2,883.9,722.8,883.9c-14.78,0-22.32-10.4-22.32-21,0-17.64,15.68-27.3,43.88-27.15v-1.5c0-6-1.66-16.89-16.59-16.89a36.36,36.36,0,0,0-19,5.43l-3-8.75c6-3.92,14.78-6.49,24-6.49,22.32,0,27.75,15.24,27.75,29.86v27.3a102.16,102.16,0,0,0,1.21,17.49Zm-2-37.25c-14.47-.3-30.91,2.27-30.91,16.44,0,8.6,5.73,12.67,12.52,12.67a18.15,18.15,0,0,0,17.64-12.22,13.85,13.85,0,0,0,.75-4.22Z" transform="translate(-14.34)"/><path class="cls-3" d="M778.89,829c0-7.54-.15-13.72-.6-19.76H789.9l.61,11.77H791c4.07-6.94,10.86-13.43,22.92-13.43,10,0,17.49,6,20.66,14.63h.3a30.1,30.1,0,0,1,8.14-9.5c4.38-3.32,9.2-5.13,16.14-5.13,9.65,0,24,6.34,24,31.67v43h-13V840.92c0-14-5.13-22.47-15.84-22.47-7.54,0-13.42,5.58-15.68,12.07a21.94,21.94,0,0,0-1.05,6.63v45.09h-13V838.51c0-11.61-5.13-20.06-15.23-20.06-8.3,0-14.33,6.64-16.44,13.27a18.2,18.2,0,0,0-1.06,6.49v44h-13Z" transform="translate(-14.34)"/><path class="cls-3" d="M904.66,829c0-7.54-.15-13.72-.6-19.76h11.61l.6,11.77h.45c4.08-6.94,10.86-13.43,22.93-13.43,10,0,17.49,6,20.66,14.63h.3a30.1,30.1,0,0,1,8.14-9.5c4.38-3.32,9.2-5.13,16.14-5.13,9.65,0,24,6.34,24,31.67v43h-13V840.92c0-14-5.13-22.47-15.84-22.47-7.54,0-13.42,5.58-15.68,12.07a21.93,21.93,0,0,0-1.06,6.63v45.09h-13V838.51c0-11.61-5.12-20.06-15.23-20.06-8.29,0-14.32,6.64-16.44,13.27a18.42,18.42,0,0,0-1,6.49v44h-13Z" transform="translate(-14.34)"/><path class="cls-3" d="M1070.84,882.24l-1-9.2h-.46c-4.07,5.73-11.91,10.86-22.32,10.86-14.77,0-22.31-10.4-22.31-21,0-17.64,15.68-27.3,43.88-27.15v-1.5c0-6-1.66-16.89-16.59-16.89a36.36,36.36,0,0,0-19,5.43l-3-8.75c6-3.92,14.78-6.49,24-6.49,22.32,0,27.75,15.24,27.75,29.86v27.3a102.16,102.16,0,0,0,1.21,17.49Zm-2-37.25c-14.48-.3-30.91,2.27-30.91,16.44,0,8.6,5.73,12.67,12.51,12.67a18.16,18.16,0,0,0,17.65-12.22,13.85,13.85,0,0,0,.75-4.22Z" transform="translate(-14.34)"/><path class="cls-3" d="M1103.11,832c0-8.6-.15-16-.6-22.78h11.61l.45,14.33h.61c3.31-9.8,11.31-16,20.2-16a14.36,14.36,0,0,1,3.77.46v12.51a20,20,0,0,0-4.52-.45c-9.35,0-16,7.09-17.8,17a37.53,37.53,0,0,0-.6,6.18v38.91h-13.12Z" transform="translate(-14.34)"/><path class="cls-3" d="M1250.44,845.14c0,27-18.7,38.76-36.34,38.76-19.76,0-35-14.48-35-37.55,0-24.43,16-38.76,36.19-38.76C1236.27,807.59,1250.44,822.83,1250.44,845.14Zm-57.91.76c0,16,9.2,28.05,22.17,28.05,12.67,0,22.17-11.92,22.17-28.35,0-12.37-6.18-28.05-21.87-28.05S1192.53,832,1192.53,845.9Z" transform="translate(-14.34)"/><path class="cls-3" d="M1268.54,882.24V819.36h-10.26V809.25h10.26v-3.46c0-10.26,2.26-19.61,8.44-25.49a25.38,25.38,0,0,1,17.79-6.79,30.85,30.85,0,0,1,11.31,2.11l-1.8,10.26a19.8,19.8,0,0,0-8.45-1.66c-11.31,0-14.18,9.95-14.18,21.11v3.92h17.65v10.11h-17.65v62.88Z" transform="translate(-14.34)"/><path class="cls-3" d="M1359.16,788.29v21h19v10.11h-19v39.36c0,9,2.57,14.17,10,14.17a29.72,29.72,0,0,0,7.69-.9l.6,10a32.35,32.35,0,0,1-11.76,1.81c-6.19,0-11.16-2-14.33-5.58-3.77-3.92-5.13-10.4-5.13-19V819.36h-11.31V809.25h11.31V791.76Z" transform="translate(-14.34)"/><path class="cls-3" d="M1393.09,832c0-8.6-.15-16-.6-22.78h11.61l.45,14.33h.61c3.31-9.8,11.31-16,20.2-16a14.36,14.36,0,0,1,3.77.46v12.51a20,20,0,0,0-4.52-.45c-9.35,0-16,7.09-17.8,17a37.53,37.53,0,0,0-.6,6.18v38.91h-13.12Z" transform="translate(-14.34)"/><path class="cls-3" d="M1503.48,862.34c0,7.54.15,14.17.6,19.9h-11.76l-.76-11.91h-.3a27.47,27.47,0,0,1-24.13,13.57c-11.46,0-25.18-6.33-25.18-32V809.25h13.27v40.42c0,13.87,4.22,23.22,16.29,23.22,8.89,0,15.08-6.18,17.49-12.06a19.53,19.53,0,0,0,1.21-6.79V809.25h13.27Z" transform="translate(-14.34)"/><path class="cls-3" d="M1532.88,848.16c.3,18,11.76,25.34,25,25.34,9.5,0,15.23-1.66,20.2-3.77l2.26,9.5c-4.67,2.11-12.66,4.52-24.28,4.52-22.46,0-35.89-14.78-35.89-36.8s13-39.36,34.24-39.36c23.82,0,30.16,21,30.16,34.39a50,50,0,0,1-.46,6.18Zm38.91-9.5c.15-8.45-3.47-21.56-18.4-21.56-13.42,0-19.3,12.36-20.36,21.56Z" transform="translate(-14.34)"/><path class="cls-3" d="M1265.21,437.89a58.18,58.18,0,0,0,29.44,8.3c16.79,0,26.61-8.87,26.61-21.7,0-11.89-6.8-18.68-24-25.29-20.76-7.36-33.59-18.11-33.59-36,0-19.81,16.42-34.53,41.14-34.53,13,0,22.45,3,28.12,6.22l-4.53,13.4a50.77,50.77,0,0,0-24.16-6c-17.36,0-24,10.38-24,19.06,0,11.89,7.73,17.74,25.28,24.53,21.52,8.31,32.46,18.69,32.46,37.37,0,19.62-14.53,36.61-44.53,36.61-12.27,0-25.67-3.59-32.46-8.12Z" transform="translate(-14.34)"/><path class="cls-3" d="M1449.38,453.74c-6,3-18.11,6-33.59,6-35.85,0-62.83-22.65-62.83-64.35,0-39.82,27-66.8,66.42-66.8,15.85,0,25.85,3.39,30.19,5.66l-4,13.4c-6.23-3-15.1-5.29-25.66-5.29-29.82,0-49.63,19.06-49.63,52.46,0,31.14,17.92,51.14,48.87,51.14,10,0,20.19-2.07,26.8-5.28Z" transform="translate(-14.34)"/><path class="cls-3" d="M1486.37,330.7V457.89H1470V330.7Z" transform="translate(-14.34)"/><path class="cls-3" d="M1580.91,398.26h-49.44v45.86h55.1v13.77h-71.52V330.7h68.69v13.78h-52.27v40.19h49.44Z" transform="translate(-14.34)"/><path class="cls-3" d="M1607.89,457.89V330.7h17.93l40.76,64.35a361.27,361.27,0,0,1,22.83,41.33l.38-.19c-1.51-17-1.89-32.46-1.89-52.27V330.7h15.48V457.89h-16.61l-40.38-64.54c-8.87-14.15-17.36-28.68-23.78-42.46l-.57.19c1,16,1.32,31.33,1.32,52.46v54.35Z" transform="translate(-14.34)"/><path class="cls-3" d="M1820.94,453.74c-6,3-18.12,6-33.59,6-35.86,0-62.84-22.65-62.84-64.35,0-39.82,27-66.8,66.42-66.8,15.85,0,25.85,3.39,30.19,5.66l-4,13.4c-6.23-3-15.09-5.29-25.66-5.29-29.82,0-49.63,19.06-49.63,52.46,0,31.14,17.92,51.14,48.87,51.14,10,0,20.19-2.07,26.8-5.28Z" transform="translate(-14.34)"/><path class="cls-3" d="M1907.36,398.26h-49.44v45.86H1913v13.77H1841.5V330.7h68.69v13.78h-52.27v40.19h49.44Z" transform="translate(-14.34)"/></g></g></g></svg>