<svg xmlns="http://www.w3.org/2000/svg" viewBox="0 0 300 150"><defs><style>.cls-1{isolation:isolate;}.cls-2{opacity:0.15;mix-blend-mode:multiply;}.cls-12,.cls-3,.cls-8{fill:#282828;}.cls-4{fill:#a3a3a3;}.cls-5{fill:#9b9b9b;}.cls-6{fill:#b4b4b4;}.cls-7{fill:#878787;}.cls-12,.cls-8{font-size:25.01px;font-family:MyriadPro-Regular, Myriad Pro;}.cls-8{letter-spacing:0.02em;}.cls-9{letter-spacing:-0.02em;}.cls-10{letter-spacing:0.02em;}.cls-11{letter-spacing:0.02em;}.cls-12{letter-spacing:0.02em;}</style></defs><title>Artboard 1</title><g class="cls-1"><g id="Layer_1" data-name="Layer 1"><g class="cls-2"><path d="M146.61,125.07c-5.18,0-10-5-13.53-14.14-3.46-8.89-5.36-20.69-5.36-33.22s1.9-24.34,5.36-33.22c3.54-9.12,8.35-14.14,13.53-14.14s10,5,13.54,14.14c3.46,8.88,5.36,20.68,5.36,33.22s-1.9,24.33-5.36,33.22C156.6,120,151.8,125.07,146.61,125.07Zm0-93.16c-4.42,0-8.83,4.79-12.08,13.15-3.38,8.71-5.25,20.3-5.25,32.65s1.87,23.94,5.25,32.65c3.25,8.35,7.66,13.14,12.08,13.14s8.84-4.79,12.08-13.14c3.39-8.71,5.26-20.31,5.26-32.65s-1.87-23.94-5.26-32.65C155.45,36.7,151,31.91,146.61,31.91Z"/></g><path class="cls-3" d="M146.61,124.13c-5.18,0-10-5-13.53-14.14-3.46-8.89-5.36-20.68-5.36-33.22s1.9-24.33,5.36-33.22c3.54-9.12,8.35-14.14,13.53-14.14s10,5,13.54,14.14c3.46,8.89,5.36,20.69,5.36,33.22s-1.9,24.33-5.36,33.22C156.6,119.11,151.8,124.13,146.61,124.13Zm0-93.15c-4.42,0-8.83,4.79-12.08,13.14-3.38,8.71-5.25,20.3-5.25,32.65s1.87,23.94,5.25,32.65c3.25,8.36,7.66,13.15,12.08,13.15s8.84-4.79,12.08-13.15c3.39-8.71,5.26-20.3,5.26-32.65s-1.87-23.94-5.26-32.65C155.45,35.77,151,31,146.61,31Z"/><g class="cls-2"><path d="M176,105.76c-10.24,0-25.38-5.57-39.53-14.55a107.17,107.17,0,0,1-21.23-17.33c-5.51-6-9-11.62-10-16.31a9.32,9.32,0,0,1,1-7.3c1.86-2.81,5.64-4.3,10.92-4.3,10.24,0,25.38,5.57,39.53,14.55A107.22,107.22,0,0,1,178,77.86c5.5,6,8.94,11.61,10,16.31a9.3,9.3,0,0,1-1,7.29C185.08,104.28,181.3,105.76,176,105.76ZM117.21,47c-4.92,0-8.39,1.33-10,3.83a8.38,8.38,0,0,0-.84,6.51c2,9.33,14.35,22.59,30.73,33,14,8.88,28.92,14.39,39,14.39,4.92,0,8.39-1.32,10-3.83a8.34,8.34,0,0,0,.84-6.51c-2-9.33-14.35-22.59-30.73-33C142.19,52.52,127.26,47,117.21,47Z"/></g><path class="cls-3" d="M176,104.83c-10.24,0-25.38-5.58-39.53-14.55a107.2,107.2,0,0,1-21.23-17.34c-5.51-6-9-11.62-10-16.31a9.32,9.32,0,0,1,1-7.3c1.86-2.81,5.64-4.3,10.92-4.3,10.24,0,25.38,5.58,39.53,14.55A107.57,107.57,0,0,1,178,76.92c5.5,6,8.94,11.62,10,16.31a9.33,9.33,0,0,1-1,7.3C185.08,103.34,181.3,104.83,176,104.83ZM117.21,46.07c-4.92,0-8.39,1.33-10,3.84a8.35,8.35,0,0,0-.84,6.5c2,9.34,14.35,22.59,30.73,33,14,8.87,28.92,14.39,39,14.39,4.92,0,8.39-1.33,10-3.84a8.31,8.31,0,0,0,.84-6.5c-2-9.34-14.35-22.59-30.73-33C142.19,51.59,127.26,46.07,117.21,46.07Z"/><g class="cls-2"><path d="M117.21,105.76h0c-5.28,0-9.06-1.48-10.92-4.3a9.35,9.35,0,0,1-1-7.29c1-4.7,4.45-10.34,10-16.31a107.22,107.22,0,0,1,21.24-17.34C150.64,51.54,165.78,46,176,46c5.28,0,9.06,1.49,10.91,4.3a9.28,9.28,0,0,1,1,7.3c-1,4.69-4.44,10.33-9.95,16.31a107.17,107.17,0,0,1-21.23,17.33C142.59,100.19,127.45,105.76,117.21,105.76ZM176,47c-10.05,0-25,5.51-39,14.39-16.38,10.39-28.73,23.65-30.73,33a8.34,8.34,0,0,0,.84,6.51c1.66,2.51,5.13,3.83,10,3.83h0c10.05,0,25-5.51,39-14.39,16.38-10.39,28.73-23.65,30.73-33a8.38,8.38,0,0,0-.84-6.51C184.41,48.34,180.94,47,176,47Z"/></g><path class="cls-3" d="M117.21,104.83h0c-5.28,0-9.06-1.49-10.92-4.3a9.37,9.37,0,0,1-1-7.3c1-4.69,4.45-10.33,10-16.31a107.57,107.57,0,0,1,21.24-17.34C150.64,50.61,165.78,45,176,45c5.28,0,9.06,1.49,10.91,4.3a9.28,9.28,0,0,1,1,7.3c-1,4.69-4.44,10.33-9.95,16.31a107.2,107.2,0,0,1-21.23,17.34C142.59,99.25,127.45,104.83,117.21,104.83ZM176,46.07c-10.05,0-25,5.52-39,14.39-16.38,10.39-28.73,23.65-30.73,33a8.31,8.31,0,0,0,.84,6.5c1.66,2.51,5.13,3.84,10,3.84h0c10.05,0,25-5.52,39-14.39,16.38-10.4,28.73-23.65,30.73-33a8.35,8.35,0,0,0-.84-6.5C184.41,47.4,180.94,46.07,176,46.07Z"/><g class="cls-2"><path d="M140.11,74.29a7.72,7.72,0,1,1,7.72,7.57A7.65,7.65,0,0,1,140.11,74.29Z"/></g><ellipse class="cls-4" cx="146.62" cy="73.35" rx="7.72" ry="7.57"/><g class="cls-2"><path d="M183.2,62.18A2.9,2.9,0,1,1,186.1,65,2.88,2.88,0,0,1,183.2,62.18Z"/></g><path class="cls-5" d="M182,61.25a2.9,2.9,0,1,1,2.89,2.84A2.86,2.86,0,0,1,182,61.25Z"/><g class="cls-2"><path d="M167.34,103.15a2.71,2.71,0,1,1,2.71,2.55A2.63,2.63,0,0,1,167.34,103.15Z"/></g><path class="cls-6" d="M167.86,102.7a2.72,2.72,0,1,1,2.71,2.54A2.63,2.63,0,0,1,167.86,102.7Z"/><g class="cls-2"><path d="M143.18,30.43A4.65,4.65,0,1,1,147.83,35,4.6,4.6,0,0,1,143.18,30.43Z"/></g><path class="cls-7" d="M142,29.49a4.65,4.65,0,1,1,4.64,4.56A4.6,4.6,0,0,1,142,29.49Z"/><text class="cls-8" transform="translate(19 82.34)">P<tspan class="cls-9" x="13.76" y="0">L</tspan><tspan class="cls-10" x="25.11" y="0">U</tspan><tspan class="cls-11" x="41.75" y="0">R</tspan><tspan class="cls-10" x="55.78" y="0">AL</tspan></text><text class="cls-12" transform="translate(188.97 82.34)">SCIENCE</text></g></g></svg>