<svg xmlns="http://www.w3.org/2000/svg" viewBox="0 0 227.8 124.87">
  <defs>
    <style>
      .cls-1 {
        isolation: isolate;
      }

      .cls-2 {
        opacity: 0.15;
        mix-blend-mode: multiply;
      }

      .cls-3 {
        fill: #bcbcbc;
      }

      .cls-4 {
        fill: #7f7f7f;
      }

      .cls-11, .cls-5 {
        fill: #f9f7ea;
      }

      .cls-6 {
        fill: #575756;
      }

      .cls-7 {
        fill: #e5e5e5;
      }

      .cls-8 {
        fill: #fff;
      }

      .cls-9 {
        fill: #a5a5a5;
      }

      .cls-10 {
        fill: #4f4f4f;
      }

      .cls-11 {
        opacity: 0.8;
      }

      .cls-12 {
        fill: #424242;
      }

      .cls-13 {
        fill: #474747;
      }

      .cls-14 {
        fill: #3c3c3b;
      }

      .cls-15 {
        fill: #4c210c;
      }

      .cls-16 {
        fill: #6b6b6b;
      }

      .cls-17 {
        fill: #595959;
      }

      .cls-18 {
        fill: #777;
      }

      .cls-19 {
        fill: #2b2b2b;
      }

      .cls-20 {
        fill: #062e66;
        opacity: 0.1;
      }

      .cls-21 {
        fill: #606060;
      }

      .cls-22 {
        fill: #161616;
      }

      .cls-23 {
        fill: #353535;
      }

      .cls-24 {
        font-size: 27.15px;
        font-family: MyriadPro-Regular, Myriad Pro;
      }

      .cls-25 {
        letter-spacing: -0.01em;
      }

      .cls-26 {
        letter-spacing: -0.01em;
      }

      .cls-27 {
        letter-spacing: 0.02em;
      }

      .cls-28 {
        letter-spacing: -0.01em;
      }

      .cls-29 {
        letter-spacing: -0.01em;
      }

      .cls-30 {
        letter-spacing: 0.02em;
      }

      .cls-31 {
        letter-spacing: 0em;
      }
    </style>
  </defs>
  <title>Asset 15</title>
  <g class="cls-1">
    <g id="Layer_2" data-name="Layer 2">
      <g id="Layer_1-2" data-name="Layer 1">
        <g>
          <g>
            <g>
              <g class="cls-2">
                <path d="M32.09,124.87l-27.45,0c-2,0-3.42-1.1-3.42-2.61a4.39,4.39,0,0,1,.72-2.46l11.22-18.56,0-12c-1-1-1.38-1.67-1.18-2.14.07-.17.28-.44.87-.44H13a2.68,2.68,0,0,1,.52,0,6.33,6.33,0,0,1,.72,0h8.36a6.57,6.57,0,0,1,.73,0,2.68,2.68,0,0,1,.52,0H24c.59,0,.8.28.87.45.2.47-.17,1.13-1.19,2.13v12L34.8,119.81a4.34,4.34,0,0,1,.71,2.46c0,1.51-1.44,2.6-3.42,2.6"/>
              </g>
              <path class="cls-3" d="M30.87,124l-27.46,0c-2,0-3.41-1.1-3.41-2.61a4.39,4.39,0,0,1,.72-2.46l11.22-18.56,0-12c-1-1-1.39-1.67-1.18-2.14.07-.16.28-.44.87-.44h.12a2.68,2.68,0,0,1,.52,0,6.33,6.33,0,0,1,.72,0h8.36a6.57,6.57,0,0,1,.73,0,2.57,2.57,0,0,1,.51,0h.13c.59,0,.8.28.87.45.2.47-.17,1.13-1.19,2.13l0,12,11.18,18.59a4.34,4.34,0,0,1,.71,2.46c0,1.51-1.44,2.6-3.42,2.6"/>
            </g>
            <g>
              <path class="cls-4" d="M12.83,103.59l-9.77,15A3.46,3.46,0,0,0,2.65,121c.36,1,.59,1.62,3.8,1.62l23,0s2.11.06,2.51-1.53-.23-2.37-1.49-4.27-8.09-13.21-8.09-13.21H12.83"/>
              <g>
                <path class="cls-5" d="M14.17,108.46a.91.91,0,1,1,.91.87A.9.9,0,0,1,14.17,108.46Z"/>
                <path class="cls-5" d="M24,119.05a.91.91,0,1,1,.91.88A.89.89,0,0,1,24,119.05Z"/>
                <path class="cls-5" d="M6.69,119.05A1.29,1.29,0,1,1,8,120.28,1.25,1.25,0,0,1,6.69,119.05Z"/>
                <path class="cls-5" d="M13.26,115.1a.66.66,0,0,1,.68-.65.67.67,0,0,1,.69.65.68.68,0,0,1-.69.66A.67.67,0,0,1,13.26,115.1Z"/>
                <path class="cls-5" d="M19,111.7a2,2,0,1,1,2,2A2,2,0,0,1,19,111.7Z"/>
              </g>
            </g>
          </g>
          <g>
            <g>
              <g class="cls-2">
                <path d="M18.37,81.66a1.83,1.83,0,1,1,1.83,1.75A1.79,1.79,0,0,1,18.37,81.66Z"/>
              </g>
              <path class="cls-4" d="M17.15,80.76A1.83,1.83,0,1,1,19,82.51,1.79,1.79,0,0,1,17.15,80.76Z"/>
            </g>
            <g>
              <g class="cls-2">
                <path d="M12.76,76.18a2.41,2.41,0,1,1,2.4,2.3A2.36,2.36,0,0,1,12.76,76.18Z"/>
              </g>
              <path class="cls-4" d="M11.54,75.28a2.41,2.41,0,1,1,2.4,2.3A2.36,2.36,0,0,1,11.54,75.28Z"/>
            </g>
            <g>
              <g class="cls-2">
                <path d="M20.62,73.87A1.41,1.41,0,1,1,22,75.22,1.38,1.38,0,0,1,20.62,73.87Z"/>
              </g>
              <path class="cls-4" d="M19.4,73a1.41,1.41,0,1,1,1.4,1.35A1.38,1.38,0,0,1,19.4,73Z"/>
            </g>
          </g>
        </g>
        <g>
          <g>
            <g class="cls-2">
              <path d="M112.53,8.86A13.52,13.52,0,0,0,119,27.33a14.68,14.68,0,0,0,19.29-6.22,13.53,13.53,0,0,0-6.5-18.48A14.7,14.7,0,0,0,112.53,8.86Z"/>
            </g>
            <path class="cls-4" d="M114.15,7.66a13.53,13.53,0,0,0,6.5,18.48,14.69,14.69,0,0,0,19.29-6.22,13.53,13.53,0,0,0-6.5-18.48A14.69,14.69,0,0,0,114.15,7.66Z"/>
          </g>
          <g>
            <g class="cls-2">
              <polygon points="111.02 38.92 114.25 40.45 120.64 28.1 117.42 26.57 111.02 38.92"/>
            </g>
            <polygon class="cls-6" points="112.64 37.72 115.87 39.25 122.26 26.9 119.04 25.37 112.64 37.72"/>
          </g>
          <g>
            <g class="cls-2">
              <polygon points="105.14 46.38 111.59 49.45 120.12 32.98 113.67 29.92 105.14 46.38"/>
            </g>
            <polygon class="cls-4" points="106.77 45.19 113.21 48.25 121.74 31.79 115.29 28.72 106.77 45.19"/>
          </g>
          <g>
            <path class="cls-7" d="M131.84,4.53A11.14,11.14,0,0,0,123.6,4a10.62,10.62,0,0,0-6.23,5.21,9.87,9.87,0,0,0-.55,7.89,10.42,10.42,0,0,0,5.43,6,11.14,11.14,0,0,0,8.24.54,10.56,10.56,0,0,0,6.23-5.21,9.87,9.87,0,0,0,.56-7.89,10.38,10.38,0,0,0-5.44-6Z"/>
            <path class="cls-8" d="M131.62,17.89a1.84,1.84,0,0,0,2.41-.78,7.13,7.13,0,0,0,.41-5.7,7.53,7.53,0,0,0-3.93-4.31,1.84,1.84,0,0,0-2.41.78,1.69,1.69,0,0,0,.81,2.31A4,4,0,0,1,131,12.51a3.91,3.91,0,0,1-.22,3.07A1.69,1.69,0,0,0,131.62,17.89Z"/>
          </g>
        </g>
        <g>
          <g>
            <g>
              <g>
                <path class="cls-9" d="M58.3,32.27l-7.49,0a1.32,1.32,0,0,0-1.33,1.28v.67a1.29,1.29,0,0,0,1.33,1.27h0a2.82,2.82,0,0,0,0,.41l.07,20.79a3.78,3.78,0,0,0,7.56,0l-.07-20.79a2.83,2.83,0,0,0,0-.41,1.29,1.29,0,0,0,1.28-1.27v-.67a1.31,1.31,0,0,0-1.34-1.27"/>
                <g>
                  <path class="cls-6" d="M58.2,30.8a.84.84,0,0,1-.84.81H51.75a.81.81,0,0,1-.84-.8.83.83,0,0,1,.84-.81h5.6a.82.82,0,0,1,.85.8"/>
                  <rect class="cls-6" x="51.61" y="30.81" width="5.88" height="1.88" transform="translate(-0.11 0.2) rotate(-0.21)"/>
                </g>
              </g>
              <g>
                <path class="cls-10" d="M57.69,38l.07,18.65a3.08,3.08,0,0,1-6.15,0L51.54,38"/>
                <g>
                  <path class="cls-11" d="M54.34,56a.85.85,0,1,1,.85.82A.84.84,0,0,1,54.34,56Z"/>
                  <path class="cls-11" d="M52.53,52.73a.61.61,0,1,1,.61.58A.59.59,0,0,1,52.53,52.73Z"/>
                  <path class="cls-11" d="M55.09,50.35a.49.49,0,1,1,.49.47A.48.48,0,0,1,55.09,50.35Z"/>
                  <path class="cls-11" d="M55.58,53.2a.49.49,0,1,1,.49.47A.48.48,0,0,1,55.58,53.2Z"/>
                </g>
              </g>
            </g>
            <g>
              <g>
                <path class="cls-9" d="M43.09,32.32l-7.49,0a1.3,1.3,0,0,0-1.33,1.27v.68a1.31,1.31,0,0,0,1.34,1.27h0c0,.13,0,.26,0,.4l.07,20.79a3.79,3.79,0,0,0,7.57,0l-.08-20.8c0-.14,0-.27,0-.41a1.29,1.29,0,0,0,1.28-1.27v-.67a1.3,1.3,0,0,0-1.33-1.27"/>
                <g>
                  <path class="cls-6" d="M43,30.85a.83.83,0,0,1-.84.81l-5.6,0a.84.84,0,0,1-.85-.81.82.82,0,0,1,.84-.8l5.61,0a.82.82,0,0,1,.84.8"/>
                  <rect class="cls-6" x="36.4" y="30.86" width="5.88" height="1.88" transform="translate(-0.11 0.14) rotate(-0.2)"/>
                  <path class="cls-6" d="M43,30.85a.83.83,0,0,1-.84.81l-5.6,0a.84.84,0,0,1-.85-.81.82.82,0,0,1,.84-.8l5.61,0a.82.82,0,0,1,.84.8"/>
                  <rect class="cls-6" x="36.4" y="30.86" width="5.88" height="1.88" transform="translate(-0.11 0.14) rotate(-0.2)"/>
                </g>
              </g>
              <g>
                <path class="cls-12" d="M42.49,42.52l0,14.19a3.08,3.08,0,0,1-6.15,0l0-14.19"/>
                <g>
                  <path class="cls-11" d="M38,54.33a.86.86,0,1,1,.86.82A.84.84,0,0,1,38,54.33Z"/>
                  <path class="cls-11" d="M38.84,50.82a.61.61,0,1,1,.6.58A.59.59,0,0,1,38.84,50.82Z"/>
                  <path class="cls-11" d="M38.85,57.28a.47.47,0,0,1,.49-.46.46.46,0,0,1,.48.46.47.47,0,0,1-.48.47A.48.48,0,0,1,38.85,57.28Z"/>
                  <path class="cls-11" d="M40.68,52.73a.49.49,0,1,1,.49.47A.48.48,0,0,1,40.68,52.73Z"/>
                </g>
              </g>
            </g>
            <g>
              <g>
                <path class="cls-9" d="M73.52,32.22l-7.49,0a1.31,1.31,0,0,0-1.33,1.28v.67A1.31,1.31,0,0,0,66,35.46h0c0,.13,0,.27,0,.4l.08,20.8a3.78,3.78,0,0,0,7.56,0l-.07-20.79,0-.41a1.29,1.29,0,0,0,1.28-1.27v-.67a1.31,1.31,0,0,0-1.34-1.27"/>
                <g>
                  <path class="cls-6" d="M73.41,30.75a.82.82,0,0,1-.84.8l-5.6,0a.81.81,0,0,1-.84-.8A.82.82,0,0,1,67,30l5.61,0a.83.83,0,0,1,.84.81"/>
                  <rect class="cls-6" x="66.83" y="30.76" width="5.88" height="1.88" transform="translate(-0.11 0.24) rotate(-0.2)"/>
                </g>
              </g>
              <g>
                <path class="cls-13" d="M73,49.09l0,7.52a3.08,3.08,0,0,1-6.15,0l0-7.51"/>
                <g>
                  <path class="cls-11" d="M68.06,52.16a.86.86,0,1,1,.86.81A.83.83,0,0,1,68.06,52.16Z"/>
                  <path class="cls-11" d="M70.69,54.33a.47.47,0,0,1,.48-.47.47.47,0,1,1,0,.94A.47.47,0,0,1,70.69,54.33Z"/>
                  <path class="cls-11" d="M68.43,56.82a.49.49,0,1,1,.49.46A.48.48,0,0,1,68.43,56.82Z"/>
                </g>
              </g>
            </g>
          </g>
          <g>
            <rect class="cls-6" x="25.97" y="45.56" width="59.55" height="1.57"/>
            <rect class="cls-6" x="47" y="46.24" width="1.64" height="17.21"/>
            <rect class="cls-6" x="62.28" y="46.35" width="1.64" height="17.11"/>
            <g>
              <path class="cls-14" d="M46.05,64h0a.85.85,0,0,1,.74-.93h2a.85.85,0,0,1,.73.93h0"/>
              <path class="cls-6" d="M49.65,64h-.33c0-.43-.26-.77-.57-.77h-2c-.32,0-.58.34-.58.77h-.33a1,1,0,0,1,.91-1.09h2A1,1,0,0,1,49.65,64Z"/>
            </g>
            <g>
              <path class="cls-14" d="M61.38,64h0a.85.85,0,0,1,.74-.93h2a.85.85,0,0,1,.74.93h0"/>
              <path class="cls-6" d="M65,64h-.33c0-.43-.26-.77-.58-.77h-2c-.31,0-.57.34-.57.77h-.33a1,1,0,0,1,.9-1.09h2A1,1,0,0,1,65,64Z"/>
            </g>
          </g>
        </g>
        <g>
          <g>
            <g class="cls-2">
              <path class="cls-15" d="M194.52,31.4l-2.79-2.81a1,1,0,0,0-1.35,0l-1.22,1.11a12.09,12.09,0,0,0-2.42-1.06l.08-1.61a.93.93,0,0,0-.91-.95l-4-.17a1,1,0,0,0-1,.88l-.07,1.51a12.4,12.4,0,0,0-3,1l-1-1a1,1,0,0,0-1.35,0l-2.94,2.67a.89.89,0,0,0,0,1.29l.85.86a11.41,11.41,0,0,0-1.38,2.6l-1.1-.05a.93.93,0,0,0-1,.87l-.18,3.88a.92.92,0,0,0,.9,1l.86,0a11,11,0,0,0,1.21,3.41l-.53.48a.88.88,0,0,0,0,1.28l2.79,2.82a1,1,0,0,0,1.35,0l.45-.41a12.2,12.2,0,0,0,3.14,1.38l0,.59a.94.94,0,0,0,.91,1l4.06.16a.93.93,0,0,0,1-.87l0-.68a12.12,12.12,0,0,0,3.49-1.36l.57.58a1,1,0,0,0,1.35,0L194.09,47a.88.88,0,0,0,0-1.29l-.74-.75a11.2,11.2,0,0,0,1.16-2.72l1.21.05a.92.92,0,0,0,1-.87l.18-3.88a.93.93,0,0,0-.9-1l-1.47-.06a11.28,11.28,0,0,0-1.21-2.82l1.14-1A.89.89,0,0,0,194.52,31.4Zm-7.82,4.7a4.64,4.64,0,0,1-.18,6.76,5.17,5.17,0,0,1-7.06-.18,4.64,4.64,0,0,1,.19-6.76A5.15,5.15,0,0,1,186.7,36.1Z"/>
              <path class="cls-15" d="M178,44l-2.39-3.13a1,1,0,0,0-1.33-.19l-1.36.95a12.7,12.7,0,0,0-2.27-1.35l.29-1.58a.91.91,0,0,0-.78-1l-4-.66a1,1,0,0,0-1.1.75l-.27,1.49a12.42,12.42,0,0,0-3.11.61l-.88-1.15a1,1,0,0,0-1.33-.19l-3.27,2.29a.9.9,0,0,0-.2,1.28l.73,1A11.74,11.74,0,0,0,155,45.46l-1.08-.18a1,1,0,0,0-1.1.74l-.69,3.83a.91.91,0,0,0,.77,1l.84.14a11.23,11.23,0,0,0,.76,3.53l-.59.41a.89.89,0,0,0-.21,1.27l2.4,3.14a1,1,0,0,0,1.33.19l.51-.36A11.79,11.79,0,0,0,160.89,61l-.1.59a.92.92,0,0,0,.77,1l4,.66a1,1,0,0,0,1.1-.75l.12-.67a12.28,12.28,0,0,0,3.64-.93l.49.64a1,1,0,0,0,1.33.2l3.27-2.3a.88.88,0,0,0,.21-1.27l-.64-.83a11.44,11.44,0,0,0,1.5-2.56l1.2.2a1,1,0,0,0,1.1-.75l.69-3.83a.92.92,0,0,0-.78-1.05l-1.45-.23a10.73,10.73,0,0,0-.82-3l1.27-.89A.9.9,0,0,0,178,44ZM170.73,47a5.93,5.93,0,0,1-1.37,8.52,6.55,6.55,0,0,1-8.89-1.31,5.93,5.93,0,0,1,1.36-8.52A6.56,6.56,0,0,1,170.73,47Z"/>
              <path class="cls-15" d="M213.52,53.82l-.69-2a.51.51,0,0,0-.63-.3l-.85.28a5.54,5.54,0,0,0-.91-1l.41-.75a.49.49,0,0,0-.22-.66l-1.9-.94a.52.52,0,0,0-.68.21l-.38.72a6.2,6.2,0,0,0-1.67-.17l-.25-.71a.51.51,0,0,0-.64-.31l-2,.67a.47.47,0,0,0-.31.6l.21.6a6.31,6.31,0,0,0-1.26.95l-.52-.25a.51.51,0,0,0-.68.2l-1,1.83a.48.48,0,0,0,.22.65l.4.19a5.72,5.72,0,0,0-.2,1.89l-.37.12a.47.47,0,0,0-.32.61l.69,1.94a.51.51,0,0,0,.64.3l.31-.1a6.27,6.27,0,0,0,1.19,1.33L202,60a.47.47,0,0,0,.22.65l1.9.94a.5.5,0,0,0,.67-.21l.18-.32a6.6,6.6,0,0,0,2,.09l.14.4a.51.51,0,0,0,.63.3l2-.66a.48.48,0,0,0,.32-.61l-.19-.52A5.45,5.45,0,0,0,211,59l.57.29a.53.53,0,0,0,.68-.21l1-1.82a.47.47,0,0,0-.22-.65l-.68-.34a6.18,6.18,0,0,0,.07-1.61l.78-.26A.46.46,0,0,0,213.52,53.82Zm-4.14.37a3.19,3.19,0,0,1-2.11,4.08,3.4,3.4,0,0,1-4.26-2,3.18,3.18,0,0,1,2.11-4.07A3.4,3.4,0,0,1,209.38,54.19Z"/>
            </g>
            <g>
              <path class="cls-16" d="M194,30l-2.79-2.82a1,1,0,0,0-1.35,0l-1.22,1.11a12.09,12.09,0,0,0-2.42-1.06l.07-1.61a.92.92,0,0,0-.9-.95l-4.06-.17a1,1,0,0,0-1,.88l-.07,1.51a12.4,12.4,0,0,0-3,1l-1-1a1,1,0,0,0-1.35,0L172,29.44a.88.88,0,0,0,0,1.29l.85.86a11,11,0,0,0-1.38,2.6l-1.1,0a.93.93,0,0,0-1,.87l-.18,3.88a.92.92,0,0,0,.9,1l.86,0a11,11,0,0,0,1.21,3.4l-.53.49a.88.88,0,0,0,0,1.28l2.79,2.82a1,1,0,0,0,1.35,0l.45-.41a12.2,12.2,0,0,0,3.14,1.38l0,.59a1,1,0,0,0,.91,1l4.06.16a.93.93,0,0,0,1-.87l0-.68a12.23,12.23,0,0,0,3.49-1.36l.57.58a1,1,0,0,0,1.35,0l2.94-2.67a.88.88,0,0,0,0-1.29l-.74-.75a11.2,11.2,0,0,0,1.16-2.72l1.21,0a.93.93,0,0,0,1-.87l.18-3.88a.93.93,0,0,0-.91-.95l-1.46-.06a11.28,11.28,0,0,0-1.21-2.82l1.14-1A.89.89,0,0,0,194,30Zm-7.82,4.7a4.65,4.65,0,0,1-.18,6.76,5.17,5.17,0,0,1-7.06-.18,4.64,4.64,0,0,1,.19-6.76A5.14,5.14,0,0,1,186.21,34.69Z"/>
              <path class="cls-17" d="M177.5,42.61l-2.4-3.13a1,1,0,0,0-1.32-.19l-1.36,1a12.7,12.7,0,0,0-2.27-1.35l.29-1.58a.91.91,0,0,0-.78-1.05l-4-.66a1,1,0,0,0-1.1.75l-.27,1.49a12.42,12.42,0,0,0-3.11.61l-.88-1.15a1,1,0,0,0-1.33-.19l-3.27,2.29a.9.9,0,0,0-.2,1.28l.73,1a12.08,12.08,0,0,0-1.71,2.42l-1.08-.18a1,1,0,0,0-1.1.74l-.69,3.83a.91.91,0,0,0,.77,1.05l.84.14a11,11,0,0,0,.76,3.53l-.59.41a.89.89,0,0,0-.21,1.27l2.4,3.14a1,1,0,0,0,1.33.19l.5-.36a12,12,0,0,0,2.94,1.75l-.11.59a.93.93,0,0,0,.78,1.05l4,.66a1,1,0,0,0,1.1-.75l.12-.67a12.28,12.28,0,0,0,3.64-.93l.49.64a1,1,0,0,0,1.33.2l3.27-2.3a.88.88,0,0,0,.21-1.27l-.64-.83a11.44,11.44,0,0,0,1.5-2.56l1.2.2a1,1,0,0,0,1.1-.75l.68-3.83a.91.91,0,0,0-.77-1l-1.45-.23a10.73,10.73,0,0,0-.82-2.95l1.27-.89A.9.9,0,0,0,177.5,42.61Zm-7.26,2.94a5.94,5.94,0,0,1-1.37,8.52A6.54,6.54,0,0,1,160,52.76a5.92,5.92,0,0,1,1.36-8.52A6.56,6.56,0,0,1,170.24,45.55Z"/>
              <path class="cls-18" d="M213,52.4l-.69-1.94a.51.51,0,0,0-.63-.3l-.85.27a5.49,5.49,0,0,0-.92-1l.42-.76a.48.48,0,0,0-.22-.65l-1.9-.94a.51.51,0,0,0-.68.21l-.38.72a6.2,6.2,0,0,0-1.67-.17l-.25-.71a.51.51,0,0,0-.64-.31l-2,.66a.48.48,0,0,0-.31.61l.21.6a6.31,6.31,0,0,0-1.26,1l-.52-.25a.51.51,0,0,0-.68.2l-1,1.83a.47.47,0,0,0,.22.65l.4.19a5.47,5.47,0,0,0-.2,1.89l-.37.12a.47.47,0,0,0-.32.61l.69,1.94a.51.51,0,0,0,.64.3l.31-.1a6.27,6.27,0,0,0,1.19,1.33l-.15.27a.47.47,0,0,0,.22.65l1.9.94a.5.5,0,0,0,.67-.21l.18-.32a6.6,6.6,0,0,0,2,.09l.14.4a.5.5,0,0,0,.63.3l2-.66a.48.48,0,0,0,.32-.61l-.19-.52a6,6,0,0,0,1.18-1.06l.57.29a.53.53,0,0,0,.68-.21l1-1.82a.47.47,0,0,0-.22-.65l-.68-.34a6.18,6.18,0,0,0,.07-1.61l.78-.26A.47.47,0,0,0,213,52.4Zm-4.15.38a3.19,3.19,0,0,1-2.1,4.08,3.4,3.4,0,0,1-4.26-2,3.18,3.18,0,0,1,2.11-4.07A3.39,3.39,0,0,1,208.88,52.78Z"/>
            </g>
          </g>
          <g>
            <path class="cls-19" d="M165.27,55.5a6.59,6.59,0,0,1-5.45-2.59,6,6,0,0,1-1.11-4.66,7.09,7.09,0,0,1,3.2-4.59l15.62-9a9.85,9.85,0,0,1,5.3-1.88,5.1,5.1,0,0,1,5,5.87,7.91,7.91,0,0,1-3.71,4.88L170,54A8.49,8.49,0,0,1,165.27,55.5Zm17.56-21.88A9.06,9.06,0,0,0,178,35.37l-15.63,9.05a6.21,6.21,0,0,0-2.79,4,5.19,5.19,0,0,0,1,4,5.69,5.69,0,0,0,4.72,2.22,7.62,7.62,0,0,0,4.22-1.3l14.14-10.55A7.11,7.11,0,0,0,187,38.44a4.23,4.23,0,0,0-4.14-4.82Z"/>
            <path class="cls-19" d="M205.93,57.58a7.59,7.59,0,0,1-4.13-1.47L179.52,42.28a5.27,5.27,0,0,1-1.32-7.49l0,0,0-.06a5.3,5.3,0,0,1,4.27-1.84,6.32,6.32,0,0,1,3.56,1.06l20.48,15.29c2.75,1.87,3.74,4.44,2.55,6.71a.18.18,0,0,1-.05.07l-.21.27A3.63,3.63,0,0,1,205.93,57.58ZM179,35.2v0l0,.06A4.33,4.33,0,0,0,180,41.54l22.26,13.82a6.86,6.86,0,0,0,3.64,1.32,2.7,2.7,0,0,0,2.22-1l.19-.23c.93-1.84.08-3.9-2.3-5.52L185.56,34.65a5.39,5.39,0,0,0-3-.89A4.45,4.45,0,0,0,179,35.2Z"/>
          </g>
        </g>
        <g>
          <path class="cls-20" d="M221.45,118.93h-2.88c0-.46,0-1,0-1.56a3,3,0,0,0,0-.43,14.71,14.71,0,0,0-2.48-28,2.79,2.79,0,0,0-1.83-1.53l2.43-7.68.08,0a.75.75,0,0,0,.91-.49l.23-.82a.69.69,0,0,0-.51-.86l-7.18-1.91a.73.73,0,0,0-.91.49l-.24.81a.7.7,0,0,0,.39.82L205,91.88l-.18,0-1.19,3.77.78.22a.72.72,0,0,0-.09.2,1.29,1.29,0,0,0,.43,1.38l-.88,3.21a.81.81,0,0,0,.6,1l3,.75a.84.84,0,0,0,1-.57l.86-3.12a1.36,1.36,0,0,0,1-.89,1.7,1.7,0,0,0,0-.22l.78.23L212.37,94l-.18-.05.44-1.4a3.16,3.16,0,0,0,.87.13,2.88,2.88,0,0,0,2.05-.84,11.74,11.74,0,0,1,1.69,22.37,4.75,4.75,0,0,0-7.17.74,12.36,12.36,0,0,1-6.74-3.7H213.6v-3H199v3h.45a2.16,2.16,0,0,0,.19.37,15.41,15.41,0,0,0,9.66,6.25c0,.38,0,.73,0,1.05h-10.9c-1.92,0-3.48,2.58-3.48,5.76h29.94C224.93,121.51,223.37,118.93,221.45,118.93Z"/>
          <g>
            <g>
              <path class="cls-21" d="M211.35,117.61a15.53,15.53,0,0,1-12.76-6.56A1.46,1.46,0,0,1,199,109a1.62,1.62,0,0,1,2.18.41,12.36,12.36,0,0,0,10.15,5.23,11.87,11.87,0,1,0,0-23.72,1.51,1.51,0,1,1,0-3,14.87,14.87,0,1,1,0,29.73Z"/>
              <polygon class="cls-22" points="212.63 110.69 212.63 110.69 198.06 110.69 198.06 110.69 198.06 107.66 198.06 107.66 212.63 107.66 212.63 107.66 212.63 110.69"/>
              <g>
                <path class="cls-22" d="M194,124.11h0c0-3.17,1.56-5.75,3.48-5.75h23c1.93,0,3.48,2.58,3.48,5.75h0"/>
                <g>
                  <path class="cls-22" d="M217.63,116.79c0,7.32-2.08,4.45-4.64,4.45s-4.64,2.87-4.64-4.45a4.64,4.64,0,0,1,9.28,0Z"/>
                  <path class="cls-21" d="M211.55,116.06a1.44,1.44,0,1,1,1.44,1.38A1.41,1.41,0,0,1,211.55,116.06Z"/>
                </g>
              </g>
            </g>
            <g>
              <g>
                <path class="cls-21" d="M207.52,101.2a.84.84,0,0,1-1,.58l-3-.75a.81.81,0,0,1-.6-1l1.43-5.21a.84.84,0,0,1,1-.57l3,.75a.82.82,0,0,1,.61,1Z"/>
                <g>
                  <path class="cls-23" d="M209.39,97.2a1.37,1.37,0,0,1-1.69.86l-3.44-1a1.3,1.3,0,0,1-.91-1.62h0a1.37,1.37,0,0,1,1.7-.87l3.43,1a1.3,1.3,0,0,1,.91,1.63Z"/>
                  <polygon class="cls-22" points="210.06 97.06 202.88 94.98 208.58 76.89 215.76 78.97 210.06 97.06"/>
                  <polygon class="cls-22" points="210.21 97.2 202.67 95.02 203.85 91.25 211.4 93.44 210.21 97.2"/>
                </g>
                <path class="cls-22" d="M216.71,78.64a.75.75,0,0,1-.91.49l-7.18-1.91a.7.7,0,0,1-.51-.87l.23-.81a.75.75,0,0,1,.91-.5L216.43,77a.71.71,0,0,1,.52.87Z"/>
              </g>
              <path class="cls-23" d="M209.69,89.4a2.84,2.84,0,1,1,2.84,2.72A2.78,2.78,0,0,1,209.69,89.4Z"/>
            </g>
          </g>
        </g>
        <text class="cls-24" transform="translate(31.8 94.46)">Н<tspan class="cls-25" x="17.7" y="0">а</tspan><tspan x="30.49" y="0">у</tspan><tspan class="cls-26" x="43.28" y="0">к</tspan><tspan x="56.12" y="0">ові </tspan><tspan class="cls-27" x="96.71" y="0">с</tspan><tspan class="cls-28" x="109.3" y="0">т</tspan><tspan class="cls-29" x="120.08" y="0">а</tspan><tspan class="cls-30" x="132.98" y="0">т</tspan><tspan class="cls-29" x="144.68" y="0">т</tspan><tspan class="cls-31" x="155.65" y="0">і</tspan></text>
      </g>
    </g>
  </g>
</svg>
