<svg xmlns="http://www.w3.org/2000/svg" viewBox="0 0 78.8 17.3">
  <defs>
    <style>
      .cls-1 {
        fill: #282828;
      }
    </style>
  </defs>
  <title>Asset 25</title>
  <g id="Layer_2" data-name="Layer 2">
    <g id="Layer_1-2" data-name="Layer 1">
      <g>
        <path class="cls-1" d="M.1.4A23.4,23.4,0,0,1,4.3.1,6.76,6.76,0,0,1,9,1.5,4.58,4.58,0,0,1,10.5,5,5.27,5.27,0,0,1,9.2,8.6,7.19,7.19,0,0,1,4,10.5a5,5,0,0,1-1.8-.2v6.8H0V.4ZM2.3,8.5a9,9,0,0,0,1.8.2c2.6,0,4.2-1.3,4.2-3.6s-1.6-3.3-4-3.3A9.1,9.1,0,0,0,2.2,2V8.5Z"/>
        <path class="cls-1" d="M13.4.2h2.2v15h7.2V17H13.4Z"/>
        <path class="cls-1" d="M26.5.2v10c0,3.8,1.7,5.4,3.9,5.4,2.5,0,4.1-1.7,4.1-5.4V.2h2.2V10c0,5.2-2.7,7.3-6.4,7.3-3.5,0-6.1-2-6.1-7.2V.2Z"/>
        <path class="cls-1" d="M40.5.4A25,25,0,0,1,44.7,0c2.3,0,3.8.4,4.9,1.4a4.08,4.08,0,0,1,1.3,3.2,4.44,4.44,0,0,1-3.2,4.3V9a4.38,4.38,0,0,1,2.5,3.4A34.9,34.9,0,0,0,51.5,17H49.2a16.16,16.16,0,0,1-1.1-4c-.5-2.3-1.4-3.2-3.4-3.3H42.6V17H40.4V.4Zm2.2,7.7h2.2c2.3,0,3.8-1.3,3.8-3.2,0-2.2-1.6-3.1-3.9-3.2a9.47,9.47,0,0,0-2.2.2V8.1Z"/>
        <path class="cls-1" d="M56.8,11.7,55,17H52.7L58.4.1h2.8L67,17H64.7l-1.9-5.3ZM62.3,10,60.6,5.1C60.2,4,60,3,59.7,2h-.1c-.3,1-.5,2-.9,3.1L57,10Z"/>
        <path class="cls-1" d="M69.4.2h2.2v15h7.2V17H69.4Z"/>
      </g>
    </g>
  </g>
</svg>
