<svg xmlns="http://www.w3.org/2000/svg" viewBox="0 0 594.49 373.63"><defs><style>.cls-1{fill:#fff;}</style></defs><title>Asset 25</title><g id="Layer_2" data-name="Layer 2"><g id="Layer_1-2" data-name="Layer 1"><path class="cls-1" d="M251.9,243.6H.12V.13H251.9ZM156.63,41.16c0,.4,0,.73,0,1.06-.25,3.81-.49,7.62-.76,11.42s-.58,7.69-.9,11.54q-.58,6.91-1.22,13.84-.57,6.17-1.17,12.33-.66,6.74-1.33,13.46t-1.31,13.45c-.49,5.16-1,10.31-1.45,15.47q-.7,8-1.31,16c-.4,5.37-.78,10.75-1.08,16.13s-.49,10.76-.72,16.15a82.93,82.93,0,0,0,.56,16.06,55,55,0,0,0,5.55,17.65,41.17,41.17,0,0,0,22.37,19.88,51.46,51.46,0,0,0,17.85,3.17,48.53,48.53,0,0,0,16.1-2.26A45.75,45.75,0,0,0,227,224a69.07,69.07,0,0,0,12.85-20.22,95.28,95.28,0,0,0,7.52-30.61c.09-1.26,0-2.54,0-3.84h-9a1.65,1.65,0,0,0-.07.2c-.07.82-.13,1.63-.21,2.45a40,40,0,0,1-3.31,13,24.19,24.19,0,0,1-13.4,13,30.55,30.55,0,0,1-17,1.56,22.22,22.22,0,0,1-13.91-8.21,32.25,32.25,0,0,1-5.25-10.23A73.28,73.28,0,0,1,182.1,163a218.06,218.06,0,0,1,.4-28.92c.34-4.91.76-9.82,1.2-14.73s.94-10.1,1.43-15.15,1-9.84,1.45-14.77.92-10.06,1.31-15.09c.41-5.33.81-10.67,1.07-16s.34-10.64.5-16c0-.17,0-.35.06-.56l57.95.33c-.11-12.39-.22-24.68-.33-37l-.59,0Q223.93,5,201.32,4.84c-8.47,0-16.94-.12-25.42-.14-16.21,0-32.42-.1-48.63,0-11,.08-21.93.4-32.89.71-4.94.14-9.89.4-14.82.8-5.43.45-10.85,1-16.25,1.72a93.73,93.73,0,0,0-17.1,3.75C36,15,28.21,21.05,23.07,30.51a127.45,127.45,0,0,0-6.73,15q-5.8,15-11.57,30c0,.11-.06.22-.1.37,2.83.21,5.61.43,8.39.61a1,1,0,0,0,.71-.35c1.13-1.64,2.3-3.25,3.32-5,2.32-3.88,4.42-7.89,7.07-11.58A41.88,41.88,0,0,1,38.43,46.85a53.33,53.33,0,0,1,19.86-5.7,100.62,100.62,0,0,1,19.09,0c1,.08,1.91.2,2.91.3,0,.28,0,.51,0,.74-.25,6.39-.4,12.78-.78,19.16-.33,5.61-.76,11.22-1.44,16.79q-1.25,10.23-3,20.4a214.7,214.7,0,0,1-7.42,30A180,180,0,0,1,52.51,163a244.79,244.79,0,0,1-16,23.81,134.21,134.21,0,0,0-8.36,12.11,28.37,28.37,0,0,0-3.76,9.59,24.29,24.29,0,0,0,.45,8.87,25.68,25.68,0,0,0,9.42,15.52,26.66,26.66,0,0,0,21.61,5.73A28.39,28.39,0,0,0,72,230.43a43.76,43.76,0,0,0,8.69-13.66,114.87,114.87,0,0,0,6.41-21.25c2.4-11.16,3.94-22.45,5.26-33.77.71-6.06,1.33-12.12,1.93-18.19q1-10.51,2-21c.55-6.09,1-12.2,1.56-18.29q.92-10.76,1.84-21.5.78-9.21,1.56-18.42c.61-7,1.25-14.07,1.88-21.11.06-.68.14-1.35.21-2Z" transform="translate(-0.12 -0.13)"/><path d="M156.63,41.16H103.28c-.07.69-.15,1.36-.21,2-.63,7-1.27,14.07-1.88,21.11q-.8,9.21-1.56,18.42-.91,10.76-1.84,21.5c-.52,6.09-1,12.2-1.56,18.29q-.95,10.53-2,21c-.6,6.07-1.22,12.13-1.93,18.19-1.32,11.32-2.86,22.61-5.26,33.77a114.87,114.87,0,0,1-6.41,21.25A43.76,43.76,0,0,1,72,230.43a28.39,28.39,0,0,1-16.14,8.17,26.66,26.66,0,0,1-21.61-5.73,25.68,25.68,0,0,1-9.42-15.52,24.29,24.29,0,0,1-.45-8.87,28.37,28.37,0,0,1,3.76-9.59,134.21,134.21,0,0,1,8.36-12.11,244.79,244.79,0,0,0,16-23.81,180,180,0,0,0,15.17-34.43,214.7,214.7,0,0,0,7.42-30q1.71-10.17,3-20.4c.68-5.57,1.11-11.18,1.44-16.79.38-6.38.53-12.77.78-19.16,0-.23,0-.46,0-.74-1-.1-2-.22-2.91-.3a100.62,100.62,0,0,0-19.09,0,53.33,53.33,0,0,0-19.86,5.7A41.88,41.88,0,0,0,24.16,59.6c-2.65,3.69-4.75,7.7-7.07,11.58-1,1.71-2.19,3.32-3.32,5a1,1,0,0,1-.71.35c-2.78-.18-5.56-.4-8.39-.61,0-.15.06-.26.1-.37q5.77-15,11.57-30a127.45,127.45,0,0,1,6.73-15C28.21,21.05,36,15,46.21,11.69a93.73,93.73,0,0,1,17.1-3.75c5.4-.68,10.82-1.27,16.25-1.72,4.93-.4,9.88-.66,14.82-.8,11-.31,21.93-.63,32.89-.71,16.21-.11,32.42,0,48.63,0,8.48,0,16.95.09,25.42.14q22.62.12,45.23.27l.59,0c.11,12.32.22,24.61.33,37l-57.95-.33c0,.21-.05.39-.06.56-.16,5.33-.24,10.66-.5,16s-.66,10.68-1.07,16c-.39,5-.84,10.06-1.31,15.09s-1,9.85-1.45,14.77-1,10.1-1.43,15.15-.86,9.82-1.2,14.73a218.06,218.06,0,0,0-.4,28.92,73.28,73.28,0,0,0,3.11,18.1,32.25,32.25,0,0,0,5.25,10.23,22.22,22.22,0,0,0,13.91,8.21,30.55,30.55,0,0,0,17-1.56,24.19,24.19,0,0,0,13.4-13,40,40,0,0,0,3.31-13c.08-.82.14-1.63.21-2.45a1.65,1.65,0,0,1,.07-.2h9c0,1.3.08,2.58,0,3.84a95.28,95.28,0,0,1-7.52,30.61A69.07,69.07,0,0,1,227,224a45.75,45.75,0,0,1-19.15,12.53,48.53,48.53,0,0,1-16.1,2.26,51.46,51.46,0,0,1-17.85-3.17,41.17,41.17,0,0,1-22.37-19.88,55,55,0,0,1-5.55-17.65,82.93,82.93,0,0,1-.56-16.06c.23-5.39.42-10.77.72-16.15s.68-10.76,1.08-16.13.84-10.66,1.31-16c.45-5.16,1-10.31,1.45-15.47q.65-6.72,1.31-13.45t1.33-13.46q.6-6.16,1.17-12.33.63-6.92,1.22-13.84.48-5.78.9-11.54c.27-3.8.51-7.61.76-11.42C156.65,41.89,156.63,41.56,156.63,41.16Z" transform="translate(-0.12 -0.13)"/><path d="M279.27,154.87l-3.91,62.85,32.59-.87q4.51,9.61-1.25,18.09l-47.31,1.74c-1.56-.29-2.52-1.44-2.88-3.43L261,156Q267.31,152.75,279.27,154.87Z" transform="translate(-0.12 -0.13)"/><path d="M323.05,155.63a42.94,42.94,0,0,1,18.64.27Q338.38,199,338.62,206c.16,4.66,1.13,8.2,2.9,10.65s4.81,3.67,9.1,3.67,7.24-1.33,8.86-4a24.64,24.64,0,0,0,3.06-10.4q.66-6.44,2.23-50.22a41.77,41.77,0,0,1,18-.11Q380.2,213.7,377,220.9a27,27,0,0,1-9.77,11.62Q360.64,236.95,350,237a32.86,32.86,0,0,1-18.66-5.35A24.35,24.35,0,0,1,321,216.09Q318.71,205.94,323.05,155.63Z" transform="translate(-0.12 -0.13)"/><path d="M401.77,155.47q27-2.57,37.8-.74t13.66,10q2.91,8.15.25,22t-20.1,18.14l19.23,24.82q-5.33,10.71-17.82,6.9l-19.06-27.65-6.36.66-2.55,25.69q-11.15,3.91-17.77-1.74l6.9-74.31Zm11.46,15.21-2.34,22.43q22.44-1.52,25.15-8t.27-11.68Q433.87,168.24,413.23,170.68Z" transform="translate(-0.12 -0.13)"/><path d="M507.09,153.78,528.82,232q-7.44,4.89-19.34,2.61l-3.91-14.56-20.15,2.5-5,14.67q-12.1,1.64-18-3.42l28.46-79.37Q499.43,149.06,507.09,153.78Zm-9.29,25.91-8.52,26.73,13.25-1.58Z" transform="translate(-0.12 -0.13)"/><path d="M557.83,154.87l-3.91,62.85,32.59-.87q4.5,9.61-1.25,18.09L538,236.68c-1.56-.29-2.52-1.44-2.88-3.43L539.52,156Q545.88,152.75,557.83,154.87Z" transform="translate(-0.12 -0.13)"/><path d="M19.24,360.19q-4.71-16.45,5.51-25.52,18.63,10.95,27,13.48Q67.45,348,69,340.33q.36-6.16-9.57-11.89l-18.63-9.06q-17.46-9.28-18.12-26.17a31.21,31.21,0,0,1,6.7-17.47Q35.41,268,43,265.56a49.21,49.21,0,0,1,18-1.78Q80.13,265,94.55,274.66A32.28,32.28,0,0,1,86,298.5q-17.61-13.19-28.19-12.32-9.95-1.15-10.52,7.1-.36,4.73,14,12.18,16.45,6.68,24.39,15.29t7.07,20.95q-1.15,16.68-15.51,25.59-9.14,6.38-26.38,5.29A72.11,72.11,0,0,1,19.24,360.19Z" transform="translate(-0.12 -0.13)"/><path d="M185,273.35q2.55,13-6.81,20.88-6.3-4.07-19.79-6.45-11.81-1.17-19.28,6.85T130,315.39q-2.46,8,3,20.66,5.52,11.44,16.78,12.1t27-4.42q5.66,11.16,1.09,21.89-18.63,8.55-30.22,8.12-21.39-2.69-31.17-15.51-13-17.18-8.85-48.49,3.35-24.8,15.73-37.48,16.17-13.11,39.22-10.72Q178.64,262.54,185,273.35Z" transform="translate(-0.12 -0.13)"/><path d="M205.67,263.64q11-2.61,23.78,1.09l-8.56,106.62q-14.77,4.2-25-1.09Z" transform="translate(-0.12 -0.13)"/><path d="M315.92,262.77q3.56,11.39-1.23,21.31l-47.41,1.52L266,304.16l38.92-.8q5.44,10.59-.87,20L264.38,325l-1.95,22.47,48.63-1.45q6,12.84-1.66,24.07l-67.78,2.68q-3.1-.58-3.84-4.57l6.53-99.37a6.09,6.09,0,0,1,3.4-4.06Z" transform="translate(-0.12 -0.13)"/><path d="M354.77,264.58l34.5,58.49L392.75,266q11.16-5.44,21.46.14L408,369.46q-7.39,6.68-20.16,1.6l-32.4-59.15-4.05,59.29q-15.6,4-23.56-1.74L334,267.62Q339.19,260.52,354.77,264.58Z" transform="translate(-0.12 -0.13)"/><path d="M504.09,273.35q2.54,13-6.81,20.88-6.31-4.07-19.79-6.45-11.82-1.17-19.28,6.85t-9.14,20.76q-2.46,8,3.05,20.66,5.5,11.44,16.78,12.1t27-4.42q5.66,11.16,1.09,21.89-18.63,8.55-30.23,8.12-21.39-2.69-31.17-15.51-13.05-17.18-8.84-48.49,3.33-24.8,15.73-37.48,16.15-13.11,39.21-10.72Q497.71,262.54,504.09,273.35Z" transform="translate(-0.12 -0.13)"/><path d="M593.1,262.77q3.55,11.39-1.23,21.31l-47.41,1.52-1.3,18.56,38.92-.8q5.45,10.59-.87,20L541.56,325l-1.95,22.47,48.63-1.45q6,12.84-1.66,24.07L518.8,372.8q-3.12-.58-3.84-4.57l6.52-99.37a6.13,6.13,0,0,1,3.41-4.06Z" transform="translate(-0.12 -0.13)"/></g></g></svg>