<svg xmlns="http://www.w3.org/2000/svg" viewBox="0 0 96.97 85.21"><defs><style>.cls-1{fill:none;stroke:#000;stroke-miterlimit:10;}</style></defs><title>Asset 45</title><g id="Layer_2" data-name="Layer 2"><g id="Layer_1-2" data-name="Layer 1"><path d="M45.73,26.86l-.43,7,3.62-.09a1.91,1.91,0,0,1-.14,2L43.52,36a.41.41,0,0,1-.32-.38L43.7,27A3.27,3.27,0,0,1,45.73,26.86Z"/><path d="M50.6,27a4.51,4.51,0,0,1,2.07,0c-.25,3.19-.36,5.05-.34,5.56a2.14,2.14,0,0,0,.32,1.19,1.17,1.17,0,0,0,1,.4,1.05,1.05,0,0,0,1-.44A2.9,2.9,0,0,0,55,32.54c0-.48.13-2.34.24-5.58a4.52,4.52,0,0,1,2,0c-.2,4.3-.41,6.71-.65,7.25a3,3,0,0,1-1.09,1.29,3.32,3.32,0,0,1-1.91.49,3.67,3.67,0,0,1-2.07-.59,2.68,2.68,0,0,1-1.15-1.73A34.51,34.51,0,0,1,50.6,27Z"/><path d="M59.34,26.93a18.32,18.32,0,0,1,4.2-.08A1.74,1.74,0,0,1,65.06,28a4.68,4.68,0,0,1,0,2.44,2.63,2.63,0,0,1-2.23,2L65,35.17a1.48,1.48,0,0,1-2,.76L60.9,32.86l-.71.07-.28,2.86a1.93,1.93,0,0,1-2-.19l.77-8.26Zm1.28,1.69-.26,2.49C62,31,63,30.7,63.15,30.23a1.56,1.56,0,0,0,0-1.3C63,28.54,62.15,28.44,60.62,28.62Z"/><path d="M71.05,26.74l2.41,8.69a2.84,2.84,0,0,1-2.15.29l-.43-1.62-2.24.28L68.08,36a2.47,2.47,0,0,1-2-.38l3.16-8.82A1.6,1.6,0,0,1,71.05,26.74Zm-1,2.88-1,3,1.47-.18Z"/><path d="M76.69,26.86l-.44,7,3.62-.09a1.89,1.89,0,0,1-.14,2L74.48,36c-.18,0-.28-.16-.32-.38L74.65,27A3.3,3.3,0,0,1,76.69,26.86Z"/><path d="M16.84,49.68a2.57,2.57,0,0,1,.61-2.84,16.39,16.39,0,0,0,3,1.5c1.16,0,1.79-.3,1.91-.87s-.33-.9-1.07-1.32l-2.07-1a3.35,3.35,0,0,1-2-2.91A3.55,3.55,0,0,1,18,40.29a3.22,3.22,0,0,1,1.52-1.13,5.63,5.63,0,0,1,2-.2,7.37,7.37,0,0,1,3.73,1.21,3.62,3.62,0,0,1-.95,2.65,5.2,5.2,0,0,0-3.13-1.37c-.74-.08-1.13.18-1.17.79,0,.35.49.8,1.55,1.35a7.66,7.66,0,0,1,2.71,1.7A3,3,0,0,1,25,47.62a3.45,3.45,0,0,1-1.73,2.84,4.51,4.51,0,0,1-2.93.59A7.94,7.94,0,0,1,16.84,49.68Z"/><path d="M35.26,40a2.24,2.24,0,0,1-.76,2.32,6.24,6.24,0,0,0-2.2-.72,2.44,2.44,0,0,0-2.14.76,4,4,0,0,0-1,2.31A3.33,3.33,0,0,0,29.49,47a2.11,2.11,0,0,0,1.86,1.35,8.55,8.55,0,0,0,3-.49,2.75,2.75,0,0,1,.12,2.43,8,8,0,0,1-3.36.9,4.89,4.89,0,0,1-3.46-1.72q-1.45-1.91-1-5.39a7.14,7.14,0,0,1,1.74-4.16,5.71,5.71,0,0,1,4.36-1.2A2.89,2.89,0,0,1,35.26,40Z"/><path d="M37.56,39a5,5,0,0,1,2.64.12l-1,11.85a3.67,3.67,0,0,1-2.78-.13Z"/><path d="M49.81,38.85a3.17,3.17,0,0,1-.14,2.37l-5.27.17-.14,2.06,4.32-.09a2,2,0,0,1-.1,2.22l-4.4.19-.22,2.5,5.41-.16a2.54,2.54,0,0,1-.19,2.67l-7.53.3a.56.56,0,0,1-.43-.51l.73-11a.66.66,0,0,1,.38-.45Z"/><path d="M54.12,39.05,58,45.55l.38-6.34a2.47,2.47,0,0,1,2.39,0L60,50.71a2,2,0,0,1-2.24.17L54.2,44.31l-.46,6.59a3.09,3.09,0,0,1-2.61-.19l.69-11.32C52.2,38.86,53,38.75,54.12,39.05Z"/><path d="M70.71,40A2.25,2.25,0,0,1,70,42.35a6.31,6.31,0,0,0-2.2-.72,2.43,2.43,0,0,0-2.14.76,4,4,0,0,0-1,2.31A3.39,3.39,0,0,0,64.94,47a2.13,2.13,0,0,0,1.86,1.35,8.48,8.48,0,0,0,3-.49,2.78,2.78,0,0,1,.13,2.43,8,8,0,0,1-3.36.9,4.91,4.91,0,0,1-3.47-1.72q-1.44-1.91-1-5.39a7.15,7.15,0,0,1,1.75-4.16,5.71,5.71,0,0,1,4.36-1.2A2.88,2.88,0,0,1,70.71,40Z"/><path d="M80.6,38.85a3.12,3.12,0,0,1-.13,2.37l-5.27.17-.14,2.06,4.32-.09a2,2,0,0,1-.1,2.22l-4.4.19-.22,2.5,5.41-.16a2.54,2.54,0,0,1-.19,2.67l-7.53.3a.56.56,0,0,1-.43-.51l.73-11a.66.66,0,0,1,.38-.45Z"/><path class="cls-1" d="M89.53,9.83l-2.4-2.4a23.84,23.84,0,0,0-33.61,0l-5,5-5-5a23.85,23.85,0,0,0-33.62,0l-2.4,2.4a23.85,23.85,0,0,0,0,33.62l5,5,36,36,36-36,5-5A23.83,23.83,0,0,0,89.53,9.83Z"/><path d="M23.75,13.16c-.45,2.92-.77,5.76-1.34,8.55-.71,3.44-2.62,6.31-4.67,9.11a2.94,2.94,0,0,0,.62,4.25,3.19,3.19,0,0,0,4.48-.77,6.14,6.14,0,0,0,1.08-2.37c.53-3.2,1-6.41,1.37-9.63.35-3,.55-6.08.81-9.18h6.12c-.12,1.49-.24,2.93-.35,4.37-.33,4-.76,8.07-.95,12.12-.2,4.4,3.28,7.1,7.18,5.75,2.55-.88,4.7-4.62,4.33-7.54-.7-.25-.9.08-1,.73a3,3,0,0,1-3.29,2.67c-1.65-.08-2.8-1.26-2.87-3.4-.09-2.32.05-4.65.19-7,.15-2.54.4-5.08.62-7.73h6.44V8.92c-2,0-4,0-6,0C31.74,9,27,9,22.26,9.2c-1.92.07-4,.39-5,2.26-1,1.7-1.6,3.58-2.39,5.38l.38.33c.36-.27.9-.45,1.07-.81C17.79,13.37,20.3,12.72,23.75,13.16Z"/></g></g></svg>