<svg xmlns="http://www.w3.org/2000/svg" viewBox="0 0 66.06 41.53"><defs><style>.cls-1{fill:#fff;}</style></defs><title>Asset 25</title><g id="Layer_2" data-name="Layer 2"><g id="Layer_1-2" data-name="Layer 1"><path class="cls-1" d="M28,27.07H0V0H28ZM17.4,4.58a.4.4,0,0,1,0,.11c0,.43,0,.85-.08,1.27s-.06.86-.1,1.28-.09,1-.14,1.54S17,9.7,17,10.15s-.09,1-.14,1.5l-.15,1.49c-.05.58-.11,1.15-.16,1.72l-.15,1.78-.12,1.79c0,.6-.05,1.2-.08,1.79A9.72,9.72,0,0,0,16.22,22a6.21,6.21,0,0,0,.61,2,4.57,4.57,0,0,0,2.49,2.21,5.82,5.82,0,0,0,2,.35,5.42,5.42,0,0,0,1.79-.25,5.23,5.23,0,0,0,2.13-1.39,7.69,7.69,0,0,0,1.43-2.25,10.53,10.53,0,0,0,.83-3.4c0-.14,0-.28,0-.43h-1a0,0,0,0,0,0,0l0,.27a4.18,4.18,0,0,1-.36,1.44A2.68,2.68,0,0,1,24.6,22a3.39,3.39,0,0,1-1.89.17,2.42,2.42,0,0,1-1.55-.91,3.42,3.42,0,0,1-.58-1.14,8.47,8.47,0,0,1-.35-2,24.57,24.57,0,0,1,.05-3.21c0-.55.08-1.09.13-1.64s.11-1.12.16-1.68.11-1.09.16-1.64l.15-1.68c0-.59.09-1.18.12-1.78s0-1.18.05-1.77c0,0,0,0,0-.06l6.44,0,0-4.11H27.4l-5,0-2.82,0c-1.81,0-3.61,0-5.41,0-1.22,0-2.43,0-3.65.07q-.83,0-1.65.09C8.24.74,7.64.81,7,.88a10.31,10.31,0,0,0-1.89.42A4.3,4.3,0,0,0,2.56,3.39a14.62,14.62,0,0,0-.74,1.67L.53,8.39v0l.93.07a.1.1,0,0,0,.08,0,6.61,6.61,0,0,0,.37-.55c.26-.43.49-.88.79-1.29A4.65,4.65,0,0,1,4.27,5.21a6.06,6.06,0,0,1,2.21-.64,11.55,11.55,0,0,1,2.12,0l.32,0v.08c0,.71,0,1.42-.08,2.13s-.09,1.25-.16,1.87S8.47,10.2,8.34,11a23.8,23.8,0,0,1-.82,3.33,19.56,19.56,0,0,1-1.69,3.83,27.25,27.25,0,0,1-1.78,2.65,15.94,15.94,0,0,0-.93,1.34,3.09,3.09,0,0,0-.41,1.07,2.49,2.49,0,0,0,0,1,2.84,2.84,0,0,0,1,1.73,3,3,0,0,0,2.4.63,3.16,3.16,0,0,0,1.8-.9,4.84,4.84,0,0,0,1-1.52,12.32,12.32,0,0,0,.71-2.36c.27-1.24.44-2.5.59-3.75.08-.68.15-1.35.21-2s.15-1.55.22-2.33l.18-2c.06-.79.13-1.59.2-2.38s.11-1.37.17-2l.21-2.35,0-.22Z" transform="translate(-0.01 0)"/><path d="M17.4,4.58H11.48l0,.22-.21,2.35c-.06.68-.11,1.36-.17,2s-.14,1.59-.2,2.38l-.18,2c-.07.78-.14,1.55-.22,2.33s-.13,1.35-.21,2c-.15,1.25-.32,2.51-.59,3.75A12.32,12.32,0,0,1,9,24.09a4.84,4.84,0,0,1-1,1.52,3.16,3.16,0,0,1-1.8.9,3,3,0,0,1-2.4-.63,2.84,2.84,0,0,1-1-1.73,2.49,2.49,0,0,1,0-1,3.09,3.09,0,0,1,.41-1.07,15.94,15.94,0,0,1,.93-1.34,27.25,27.25,0,0,0,1.78-2.65,19.56,19.56,0,0,0,1.69-3.83A23.8,23.8,0,0,0,8.34,11c.13-.75.24-1.5.34-2.26s.12-1.24.16-1.87.05-1.42.08-2.13V4.61l-.32,0a11.55,11.55,0,0,0-2.12,0,6.06,6.06,0,0,0-2.21.64A4.65,4.65,0,0,0,2.69,6.62c-.3.41-.53.86-.79,1.29a6.61,6.61,0,0,1-.37.55.1.1,0,0,1-.08,0L.52,8.43v0L1.82,5.06a14.62,14.62,0,0,1,.74-1.67A4.3,4.3,0,0,1,5.14,1.3,10.31,10.31,0,0,1,7,.88C7.64.81,8.24.74,8.84.69S9.94.62,10.49.6c1.22,0,2.43-.07,3.65-.07,1.8,0,3.6,0,5.41,0l2.82,0,5,0h.06l0,4.11-6.44,0s0,0,0,.06c0,.59,0,1.18-.05,1.77s-.08,1.19-.12,1.78l-.15,1.68c-.05.55-.11,1.09-.16,1.64s-.11,1.12-.16,1.68-.09,1.09-.13,1.64a24.57,24.57,0,0,0-.05,3.21,8.47,8.47,0,0,0,.35,2,3.42,3.42,0,0,0,.58,1.14,2.42,2.42,0,0,0,1.55.91A3.39,3.39,0,0,0,24.6,22a2.68,2.68,0,0,0,1.49-1.45,4.18,4.18,0,0,0,.36-1.44l0-.27a0,0,0,0,1,0,0h1c0,.15,0,.29,0,.43a10.53,10.53,0,0,1-.83,3.4,7.69,7.69,0,0,1-1.43,2.25,5.23,5.23,0,0,1-2.13,1.39,5.42,5.42,0,0,1-1.79.25,5.82,5.82,0,0,1-2-.35A4.57,4.57,0,0,1,16.83,24a6.21,6.21,0,0,1-.61-2,9.72,9.72,0,0,1-.07-1.79c0-.59.05-1.19.08-1.79l.12-1.79.15-1.78c.05-.57.11-1.14.16-1.72l.15-1.49c.05-.5.1-1,.14-1.5s.09-.91.13-1.37.1-1,.14-1.54.07-.85.1-1.28.06-.84.08-1.27A.4.4,0,0,0,17.4,4.58Z" transform="translate(-0.01 0)"/><path d="M31,17.21l-.43,7,3.62-.1a1.93,1.93,0,0,1-.14,2l-5.26.2a.41.41,0,0,1-.32-.38l.5-8.59A3.26,3.26,0,0,1,31,17.21Z" transform="translate(-0.01 0)"/><path d="M35.9,17.29a4.75,4.75,0,0,1,2.06,0c-.24,3.2-.35,5.05-.34,5.57A2.1,2.1,0,0,0,38,24.07a1.16,1.16,0,0,0,1,.41,1.07,1.07,0,0,0,1-.44,2.74,2.74,0,0,0,.34-1.16c0-.47.13-2.33.25-5.58a4.79,4.79,0,0,1,2,0q-.28,6.45-.64,7.25a3,3,0,0,1-1.09,1.3,3.4,3.4,0,0,1-1.91.49,3.6,3.6,0,0,1-2.07-.6A2.66,2.66,0,0,1,35.67,24,33.75,33.75,0,0,1,35.9,17.29Z" transform="translate(-0.01 0)"/><path d="M44.64,17.27a18.94,18.94,0,0,1,4.2-.08,1.78,1.78,0,0,1,1.52,1.11,4.78,4.78,0,0,1,0,2.44,2.62,2.62,0,0,1-2.24,2l2.14,2.76a1.48,1.48,0,0,1-2,.77l-2.12-3.07-.7.07-.29,2.85a1.89,1.89,0,0,1-2-.19L44,17.68ZM45.91,19l-.25,2.5c1.66-.12,2.59-.41,2.79-.89a1.56,1.56,0,0,0,0-1.3C48.3,18.89,47.44,18.78,45.91,19Z" transform="translate(-0.01 0)"/><path d="M56.34,17.09l2.42,8.69a2.84,2.84,0,0,1-2.15.29l-.43-1.62-2.24.28-.56,1.63a2.5,2.5,0,0,1-2-.38l3.16-8.82A1.59,1.59,0,0,1,56.34,17.09Zm-1,2.88-1,3,1.48-.18Z" transform="translate(-0.01 0)"/><path d="M62,17.21l-.43,7,3.62-.1a1.91,1.91,0,0,1-.14,2l-5.26.2a.41.41,0,0,1-.32-.38l.5-8.59A3.27,3.27,0,0,1,62,17.21Z" transform="translate(-0.01 0)"/><path d="M2.14,40a2.54,2.54,0,0,1,.61-2.83,16.71,16.71,0,0,0,3,1.5c1.16,0,1.8-.31,1.91-.87s-.33-.9-1.06-1.33l-2.07-1a3.34,3.34,0,0,1-2-2.91,3.37,3.37,0,0,1,.74-1.94,3.13,3.13,0,0,1,1.51-1.13,5.47,5.47,0,0,1,2-.2,7.41,7.41,0,0,1,3.73,1.21,3.64,3.64,0,0,1-.95,2.65A5.14,5.14,0,0,0,6.42,31.8c-.73-.09-1.12.18-1.17.79q0,.52,1.56,1.35a7.52,7.52,0,0,1,2.71,1.7A3,3,0,0,1,10.3,38a3.45,3.45,0,0,1-1.72,2.84,4.59,4.59,0,0,1-2.93.59A8.08,8.08,0,0,1,2.14,40Z" transform="translate(-0.01 0)"/><path d="M20.56,30.37a2.25,2.25,0,0,1-.76,2.32A6.13,6.13,0,0,0,17.6,32a2.41,2.41,0,0,0-2.14.76,4.1,4.1,0,0,0-1,2.3,3.41,3.41,0,0,0,.34,2.3,2.14,2.14,0,0,0,1.87,1.35,8.59,8.59,0,0,0,3-.5,2.77,2.77,0,0,1,.12,2.44,8,8,0,0,1-3.36.9A4.86,4.86,0,0,1,13,39.8q-1.45-1.9-1-5.38a7.18,7.18,0,0,1,1.75-4.17,5.7,5.7,0,0,1,4.36-1.19A2.91,2.91,0,0,1,20.56,30.37Z" transform="translate(-0.01 0)"/><path d="M22.85,29.29a5.1,5.1,0,0,1,2.64.13l-.95,11.84a3.7,3.7,0,0,1-2.77-.12Z" transform="translate(-0.01 0)"/><path d="M35.1,29.2A3.12,3.12,0,0,1,35,31.57l-5.27.16-.15,2.07,4.33-.09a2,2,0,0,1-.1,2.22l-4.4.19-.22,2.49,5.4-.16a2.54,2.54,0,0,1-.18,2.68l-7.53.29a.54.54,0,0,1-.43-.5l.73-11a.65.65,0,0,1,.37-.45Z" transform="translate(-0.01 0)"/><path d="M39.42,29.4l3.83,6.5.39-6.35a2.45,2.45,0,0,1,2.38,0l-.69,11.48a2,2,0,0,1-2.24.18l-3.6-6.57L39,41.25a3.11,3.11,0,0,1-2.62-.2l.7-11.31C37.5,29.21,38.26,29.1,39.42,29.4Z" transform="translate(-0.01 0)"/><path d="M56,30.37a2.23,2.23,0,0,1-.76,2.32A6.07,6.07,0,0,0,53.06,32a2.43,2.43,0,0,0-2.15.76,4,4,0,0,0-1,2.3,3.41,3.41,0,0,0,.34,2.3,2.12,2.12,0,0,0,1.86,1.35,8.52,8.52,0,0,0,3-.5,2.77,2.77,0,0,1,.12,2.44,8,8,0,0,1-3.36.9A4.88,4.88,0,0,1,48.4,39.8c-1-1.27-1.29-3.06-1-5.38a7.18,7.18,0,0,1,1.75-4.17,5.68,5.68,0,0,1,4.35-1.19A2.88,2.88,0,0,1,56,30.37Z" transform="translate(-0.01 0)"/><path d="M65.9,29.2a3.08,3.08,0,0,1-.14,2.37l-5.26.16-.15,2.07,4.33-.09a2,2,0,0,1-.1,2.22l-4.41.19L60,38.61l5.4-.16a2.54,2.54,0,0,1-.18,2.68l-7.53.29a.54.54,0,0,1-.43-.5l.72-11a.69.69,0,0,1,.38-.45Z" transform="translate(-0.01 0)"/></g></g></svg>