<svg xmlns="http://www.w3.org/2000/svg" viewBox="0 0 97.97 86.41"><defs><style>.cls-1{fill:#fff;}.cls-2{fill:none;stroke:#000;stroke-miterlimit:10;stroke-width:2px;}</style></defs><title>Asset 15</title><g id="Layer_2" data-name="Layer 2"><g id="Layer_1-2" data-name="Layer 1"><path class="cls-1" d="M43.19,37.23h-28V10.16h28ZM24.13,14.76v.08c0,.71,0,1.43-.09,2.14s-.1,1.41-.18,2.1-.21,1.46-.33,2.18a25.41,25.41,0,0,1-.78,3.12,21,21,0,0,1-1.43,3.39,24.63,24.63,0,0,1-1.82,2.82c-.37.5-.73,1-1.08,1.52a3.34,3.34,0,0,0-.48,1.07,2.58,2.58,0,0,0,0,1,2.8,2.8,0,0,0,.61,1.41,3,3,0,0,0,2.77,1.12,3.11,3.11,0,0,0,2.19-1.27,5.81,5.81,0,0,0,.84-1.62,18.15,18.15,0,0,0,.8-3.33c.09-.56.17-1.13.24-1.7s.13-1.1.19-1.65.1-1,.15-1.45.09-1,.13-1.46L26,22.86c.05-.52.09-1.05.13-1.57s.09-1,.14-1.56.09-1,.13-1.56.09-1,.13-1.53L26.66,15l0-.24h5.93v0c0,.22,0,.45,0,.68,0,.47-.06.95-.1,1.42s-.09,1-.13,1.56L32.19,20c0,.54-.11,1.09-.16,1.64s-.11,1.09-.16,1.64-.11,1.14-.16,1.72-.1,1.18-.14,1.77-.09,1.2-.13,1.79-.05,1.2-.08,1.8a9.72,9.72,0,0,0,.07,1.79,5.83,5.83,0,0,0,.62,2,4.56,4.56,0,0,0,2.48,2.21,5.82,5.82,0,0,0,2,.35,5.42,5.42,0,0,0,1.79-.25A5.15,5.15,0,0,0,40.43,35a7.77,7.77,0,0,0,1.43-2.24,10.53,10.53,0,0,0,.83-3.4c0-.14,0-.29,0-.43h-1l0,.3a4.08,4.08,0,0,1-.37,1.45,2.71,2.71,0,0,1-1.52,1.45,3.4,3.4,0,0,1-1.92.15,2.48,2.48,0,0,1-1.54-1,4.06,4.06,0,0,1-.55-1.15,8.56,8.56,0,0,1-.31-1.82,22.89,22.89,0,0,1,0-3.1c0-.57.08-1.14.13-1.7s.1-1.13.16-1.69.12-1.19.17-1.78l.15-1.68c0-.59.09-1.19.12-1.78s0-1.18,0-1.77c0,0,0,0,0-.07l6.44,0,0-4.11h-.08l-2.69,0-4.82,0H30.81c-1.91,0-3.82,0-5.72.12-.75,0-1.5.1-2.25.17a13.94,13.94,0,0,0-1.81.3,6.65,6.65,0,0,0-1.61.6,4.17,4.17,0,0,0-1.6,1.6,12.91,12.91,0,0,0-.8,1.78c-.43,1.1-.85,2.21-1.28,3.31,0,0,0,0,0,0l.94.07a.1.1,0,0,0,.07,0,6.61,6.61,0,0,0,.37-.55c.26-.43.49-.88.78-1.29a4.7,4.7,0,0,1,1.73-1.49A6.32,6.32,0,0,1,22,14.69a12,12,0,0,1,1.8,0Z"/><path d="M24.13,14.76l-.33,0a12,12,0,0,0-1.8,0,6.32,6.32,0,0,0-2.38.59,4.7,4.7,0,0,0-1.73,1.49c-.29.41-.52.86-.78,1.29a6.61,6.61,0,0,1-.37.55.1.1,0,0,1-.07,0l-.94-.07s0,0,0,0c.43-1.1.85-2.21,1.28-3.31a12.91,12.91,0,0,1,.8-1.78,4.17,4.17,0,0,1,1.6-1.6,6.65,6.65,0,0,1,1.61-.6,13.94,13.94,0,0,1,1.81-.3c.75-.07,1.5-.13,2.25-.17,1.9-.1,3.81-.11,5.72-.12h4.27l4.82,0,2.69,0h.08l0,4.11-6.44,0s0,.05,0,.07c0,.59,0,1.18,0,1.77s-.08,1.19-.12,1.78l-.15,1.68c0,.59-.12,1.18-.17,1.78s-.11,1.12-.16,1.69-.1,1.13-.13,1.7a22.89,22.89,0,0,0,0,3.1,8.56,8.56,0,0,0,.31,1.82,4.06,4.06,0,0,0,.55,1.15,2.48,2.48,0,0,0,1.54,1,3.4,3.4,0,0,0,1.92-.15,2.71,2.71,0,0,0,1.52-1.45,4.08,4.08,0,0,0,.37-1.45l0-.3h1c0,.14,0,.29,0,.43a10.53,10.53,0,0,1-.83,3.4A7.77,7.77,0,0,1,40.43,35a5.15,5.15,0,0,1-2.13,1.4,5.42,5.42,0,0,1-1.79.25,5.82,5.82,0,0,1-2-.35,4.56,4.56,0,0,1-2.48-2.21,5.83,5.83,0,0,1-.62-2,9.72,9.72,0,0,1-.07-1.79c0-.6.05-1.2.08-1.8s.08-1.19.13-1.79.09-1.18.14-1.77.11-1.15.16-1.72.11-1.1.16-1.64.11-1.1.16-1.64l.15-1.58c0-.52.09-1,.13-1.56s.07-1,.1-1.42c0-.23,0-.46,0-.68v0H26.69l0,.24-.15,1.68c0,.51-.09,1-.13,1.53s-.09,1-.13,1.56-.09,1-.14,1.56S26,22.34,26,22.86l-.12,1.33c0,.49-.08,1-.13,1.46s-.09,1-.15,1.45-.12,1.1-.19,1.65-.15,1.14-.24,1.7a18.15,18.15,0,0,1-.8,3.33,5.81,5.81,0,0,1-.84,1.62,3.11,3.11,0,0,1-2.19,1.27,3,3,0,0,1-2.77-1.12,2.8,2.8,0,0,1-.61-1.41,2.58,2.58,0,0,1,0-1,3.34,3.34,0,0,1,.48-1.07c.35-.51.71-1,1.08-1.52a24.63,24.63,0,0,0,1.82-2.82,21,21,0,0,0,1.43-3.39,25.41,25.41,0,0,0,.78-3.12c.12-.72.24-1.45.33-2.18S24,17.68,24,17s.06-1.43.09-2.14Z"/><path d="M46.23,27.36l-.43,7,3.62-.09a1.91,1.91,0,0,1-.14,2L44,36.45a.41.41,0,0,1-.32-.38l.5-8.59A3.27,3.27,0,0,1,46.23,27.36Z"/><path d="M51.1,27.45a4.51,4.51,0,0,1,2.07,0c-.25,3.19-.36,5.05-.34,5.56a2.14,2.14,0,0,0,.32,1.19,1.17,1.17,0,0,0,1,.4,1.05,1.05,0,0,0,1-.44A2.9,2.9,0,0,0,55.49,33c0-.48.13-2.34.24-5.58a4.52,4.52,0,0,1,2,0c-.2,4.3-.41,6.71-.65,7.25A3,3,0,0,1,56,36a3.32,3.32,0,0,1-1.91.49A3.67,3.67,0,0,1,52,35.89a2.68,2.68,0,0,1-1.15-1.73A34.51,34.51,0,0,1,51.1,27.45Z"/><path d="M59.84,27.43a18.32,18.32,0,0,1,4.2-.08,1.74,1.74,0,0,1,1.52,1.1,4.68,4.68,0,0,1,0,2.44,2.63,2.63,0,0,1-2.23,2l2.13,2.76a1.48,1.48,0,0,1-2,.76L61.4,33.36l-.71.07-.28,2.86a1.93,1.93,0,0,1-2-.19l.77-8.26Zm1.28,1.69-.26,2.49c1.66-.11,2.59-.41,2.79-.88a1.56,1.56,0,0,0,0-1.3C63.5,29,62.65,28.94,61.12,29.12Z"/><path d="M71.55,27.24,74,35.93a2.84,2.84,0,0,1-2.15.29l-.43-1.62-2.24.28-.56,1.63a2.47,2.47,0,0,1-2-.38l3.16-8.82A1.6,1.6,0,0,1,71.55,27.24Zm-1,2.88-1,3L71,32.91Z"/><path d="M77.19,27.36l-.44,7,3.62-.09a1.89,1.89,0,0,1-.14,2L75,36.45c-.18,0-.28-.16-.32-.38l.49-8.59A3.3,3.3,0,0,1,77.19,27.36Z"/><path d="M17.34,50.18A2.57,2.57,0,0,1,18,47.34a16.39,16.39,0,0,0,3,1.5c1.16,0,1.79-.3,1.91-.87s-.33-.9-1.07-1.32l-2.07-1a3.35,3.35,0,0,1-2-2.91,3.55,3.55,0,0,1,.74-1.94A3.22,3.22,0,0,1,20,39.66a5.63,5.63,0,0,1,2-.2,7.37,7.37,0,0,1,3.73,1.21,3.62,3.62,0,0,1-.95,2.65A5.2,5.2,0,0,0,21.63,42c-.74-.08-1.13.18-1.17.79,0,.35.49.8,1.55,1.35a7.66,7.66,0,0,1,2.71,1.7,3,3,0,0,1,.79,2.33A3.45,3.45,0,0,1,23.78,51a4.51,4.51,0,0,1-2.93.59A7.94,7.94,0,0,1,17.34,50.18Z"/><path d="M35.76,40.53A2.24,2.24,0,0,1,35,42.85a6.24,6.24,0,0,0-2.2-.72,2.44,2.44,0,0,0-2.14.76,4,4,0,0,0-1,2.31A3.33,3.33,0,0,0,30,47.49a2.11,2.11,0,0,0,1.86,1.35,8.55,8.55,0,0,0,3-.49A2.75,2.75,0,0,1,35,50.78a8,8,0,0,1-3.36.9A4.89,4.89,0,0,1,28.15,50q-1.45-1.91-1-5.39a7.14,7.14,0,0,1,1.74-4.16,5.71,5.71,0,0,1,4.36-1.2A2.89,2.89,0,0,1,35.76,40.53Z"/><path d="M38.06,39.45a5,5,0,0,1,2.64.12l-1,11.85A3.67,3.67,0,0,1,37,51.29Z"/><path d="M50.31,39.35a3.17,3.17,0,0,1-.14,2.37l-5.27.17L44.76,44l4.32-.09a2,2,0,0,1-.1,2.22l-4.4.19-.22,2.5,5.41-.16a2.54,2.54,0,0,1-.19,2.67l-7.53.3a.56.56,0,0,1-.43-.51l.73-11a.66.66,0,0,1,.38-.45Z"/><path d="M54.62,39.55l3.84,6.5.38-6.34a2.47,2.47,0,0,1,2.39,0l-.7,11.49a2,2,0,0,1-2.24.17L54.7,44.81l-.46,6.59a3.09,3.09,0,0,1-2.61-.19l.69-11.32C52.7,39.36,53.47,39.25,54.62,39.55Z"/><path d="M71.21,40.53a2.25,2.25,0,0,1-.75,2.32,6.31,6.31,0,0,0-2.2-.72,2.43,2.43,0,0,0-2.14.76,4,4,0,0,0-1,2.31,3.39,3.39,0,0,0,.34,2.29,2.13,2.13,0,0,0,1.86,1.35,8.48,8.48,0,0,0,3-.49,2.78,2.78,0,0,1,.13,2.43,8,8,0,0,1-3.36.9A4.91,4.91,0,0,1,63.6,50q-1.44-1.91-1-5.39a7.15,7.15,0,0,1,1.75-4.16,5.71,5.71,0,0,1,4.36-1.2A2.88,2.88,0,0,1,71.21,40.53Z"/><path d="M81.1,39.35A3.12,3.12,0,0,1,81,41.72l-5.27.17L75.56,44l4.32-.09a2,2,0,0,1-.1,2.22l-4.4.19-.22,2.5,5.41-.16a2.54,2.54,0,0,1-.19,2.67l-7.53.3a.56.56,0,0,1-.43-.51l.73-11a.66.66,0,0,1,.38-.45Z"/><path class="cls-2" d="M90,10.33l-2.4-2.4A23.84,23.84,0,0,0,54,7.93l-5,5-5-5a23.85,23.85,0,0,0-33.62,0l-2.4,2.4A23.85,23.85,0,0,0,7.93,44l5,5L49,85,85,49l5-5A23.83,23.83,0,0,0,90,10.33Z"/></g></g></svg>