<svg xmlns="http://www.w3.org/2000/svg" viewBox="0 0 82 50"><defs><style>.cls-1{fill:none;stroke:#000;stroke-miterlimit:10;stroke-width:2px;}</style></defs><title>Asset 35</title><g id="Layer_2" data-name="Layer 2"><g id="Layer_1-2" data-name="Layer 1"><path d="M8.24,17.06a5.83,5.83,0,0,0,3,.85C13,17.91,14,17,14,15.7s-.69-1.91-2.44-2.58c-2.12-.75-3.43-1.85-3.43-3.68,0-2,1.68-3.52,4.2-3.52a5.82,5.82,0,0,1,2.86.64l-.46,1.36a5.18,5.18,0,0,0-2.46-.61c-1.77,0-2.45,1.06-2.45,1.94,0,1.21.79,1.81,2.58,2.5,2.2.85,3.31,1.91,3.31,3.81s-1.48,3.74-4.54,3.74a6.72,6.72,0,0,1-3.31-.83Z"/><path d="M27,18.68a8.2,8.2,0,0,1-3.42.62c-3.66,0-6.41-2.31-6.41-6.57A6.45,6.45,0,0,1,24,5.92,6.94,6.94,0,0,1,27,6.5l-.4,1.37A6.09,6.09,0,0,0,24,7.33C21,7.33,19,9.27,19,12.68c0,3.17,1.83,5.21,5,5.21a6.66,6.66,0,0,0,2.73-.54Z"/><path d="M30.78,6.13v13H29.11v-13Z"/><path d="M40.42,13h-5V17.7H41v1.4H33.71v-13h7V7.54H35.38v4.1h5Z"/><path d="M43.17,19.1v-13H45l4.16,6.57a37.5,37.5,0,0,1,2.33,4.21l0,0c-.16-1.73-.2-3.31-.2-5.33V6.13h1.58v13H51.22L47.1,12.52a42.24,42.24,0,0,1-2.43-4.33l-.05,0c.09,1.64.13,3.2.13,5.35V19.1Z"/><path d="M64.9,18.68a8.3,8.3,0,0,1-3.43.62c-3.65,0-6.41-2.31-6.41-6.57a6.46,6.46,0,0,1,6.78-6.81,7,7,0,0,1,3.08.58l-.41,1.37a6.05,6.05,0,0,0-2.62-.54c-3,0-5.06,1.94-5.06,5.35,0,3.17,1.83,5.21,5,5.21a6.63,6.63,0,0,0,2.73-.54Z"/><path d="M73.71,13h-5V17.7h5.62v1.4H67v-13h7V7.54H68.67v4.1h5Z"/><path d="M18.43,42.19v-13h1.83l4.16,6.56A35.87,35.87,0,0,1,26.74,40l0,0c-.15-1.73-.19-3.31-.19-5.33V29.22h1.58v13H26.48l-4.12-6.58a40.43,40.43,0,0,1-2.43-4.33l-.05,0c.09,1.64.13,3.19.13,5.35v5.54Z"/><path d="M37.81,36.11h-5v4.68h5.61v1.4H31.09v-13h7v1.41H32.77v4.09h5Z"/><path d="M42.85,42.19l-3.29-13h1.77l1.54,6.56c.38,1.62.73,3.24,1,4.49h0c.21-1.29.61-2.83,1.06-4.51l1.73-6.54h1.75L50,35.8c.36,1.54.71,3.08.9,4.45h0c.27-1.43.63-2.87,1-4.49l1.71-6.54h1.71l-3.67,13H50l-1.64-6.75a42.27,42.27,0,0,1-.85-4.24h0c-.24,1.29-.52,2.56-1,4.24L44.6,42.19Z"/><path d="M56.78,40.15a5.93,5.93,0,0,0,3,.85c1.71,0,2.71-.91,2.71-2.21s-.69-1.91-2.44-2.58c-2.12-.75-3.43-1.85-3.43-3.68,0-2,1.68-3.52,4.2-3.52a5.82,5.82,0,0,1,2.86.64L63.22,31a5.18,5.18,0,0,0-2.46-.61c-1.77,0-2.44,1.05-2.44,1.94,0,1.21.78,1.81,2.57,2.5,2.2.85,3.31,1.91,3.31,3.81s-1.48,3.73-4.54,3.73a6.75,6.75,0,0,1-3.31-.82Z"/><rect class="cls-1" x="1" y="1" width="80" height="48"/></g></g></svg>